<svg version="1.1" id="Layer_1" xmlns="http://www.w3.org/2000/svg" xmlns:xlink="http://www.w3.org/1999/xlink" x="0px" y="0px"
	 width="100%" viewBox="0 0 908 582" enable-background="new 0 0 908 582" xml:space="preserve">
<path fill="none" opacity="1.000000" stroke="#000000" stroke-linecap="round" stroke-linejoin="round" stroke-width="3.000000"
	d="
M590.500000,520.500000 
	C587.625916,517.485901 588.665771,513.357178 588.263000,509.968750 
	C586.439026,494.622009 579.808899,481.299713 571.913147,468.553802 
	C562.322632,453.071991 549.532654,440.293732 534.890381,429.650787 
	C526.660950,423.669098 517.457214,419.779602 506.441284,423.317169 
	C500.082794,425.359070 496.604095,430.080688 494.774231,435.099976 
	C490.989105,445.482544 491.073547,456.392090 495.000000,467.000000 
"/>
<path fill="none" opacity="1.000000" stroke="#000000" stroke-linecap="round" stroke-linejoin="round" stroke-width="6.000000"
	d="
M756.000000,485.499969 
	C755.166626,486.166656 754.401550,487.298004 753.489990,487.431854 
	C732.314453,490.540985 711.530823,496.678497 689.998779,496.837158 
	C677.169495,496.931671 664.239868,496.772552 651.500000,494.500000 
"/>
<path fill="none" opacity="1.000000" stroke="#000000" stroke-linecap="round" stroke-linejoin="round" stroke-width="4.000000"
	d="
M625.000000,470.000000 
	C628.333313,473.500000 631.587097,477.080200 635.017029,480.482849 
	C641.651855,487.065094 650.365662,488.115479 659.004761,488.950684 
	C673.002991,490.303955 687.063416,489.877991 700.978027,488.305481 
	C708.481079,487.457550 715.916687,485.580322 723.503845,485.055786 
	C725.781128,484.898315 726.011414,482.267120 728.000000,482.000000 
"/>
<path fill="none" opacity="1.000000" stroke="#000000" stroke-linecap="round" stroke-linejoin="round" stroke-width="3.000000"
	d="
M503.500000,116.500000 
	C501.905640,119.295486 499.759308,117.703880 498.025909,116.941101 
	C494.183868,115.250404 490.901062,115.085777 486.398102,115.995796 
	C480.508759,117.185982 474.080017,118.793617 467.343018,115.860550 
	C462.658417,113.821007 456.374146,114.353073 451.027863,115.180054 
	C441.709656,116.621429 432.538879,119.098137 423.002441,118.463470 
	C418.863800,118.188026 415.265717,121.625679 411.000000,120.000000 
"/>
<path fill="none" opacity="1.000000" stroke="#000000" stroke-linecap="round" stroke-linejoin="round" stroke-width="3.000000"
	d="
M439.000000,435.000000 
	C442.947052,435.283630 444.791443,438.976074 447.824677,440.792725 
	C457.791168,446.761719 468.042664,452.419159 477.039764,459.952515 
	C481.147278,463.391785 484.862701,467.173401 486.894958,472.043823 
	C489.349121,477.925507 493.604309,480.817047 499.466888,482.608337 
	C505.150208,484.344879 510.338531,486.673523 511.702637,493.962067 
	C512.733643,499.470703 516.183472,504.204926 521.504883,506.990631 
	C524.006531,508.300171 526.105652,509.753876 527.619812,512.432251 
	C529.569214,515.880493 533.300293,517.871094 536.565308,519.894592 
	C543.645447,524.282227 548.589050,532.274414 557.513000,533.396851 
	C566.876892,534.574707 574.872070,539.786072 583.979309,541.603760 
	C584.904602,541.788452 586.466431,541.567200 586.624512,544.171448 
	C587.617981,542.226746 588.059082,541.363342 588.535522,540.430603 
	C587.531799,539.626892 586.597107,538.672668 585.482727,538.029907 
	C583.314392,536.779236 583.150208,534.560852 584.103821,533.066223 
	C586.785767,528.862610 587.628845,524.109436 589.000000,519.500000 
"/>
<path fill="none" opacity="1.000000" stroke="#000000" stroke-linecap="round" stroke-linejoin="round" stroke-width="6.000000"
	d="
M818.500000,350.500000 
	C816.157654,351.007202 816.467773,349.382324 816.502014,348.000061 
	C816.695801,340.177002 814.923279,332.563751 813.321045,325.038086 
	C811.985840,318.766418 808.783691,312.790771 804.392761,308.100372 
	C796.811218,300.001740 791.018982,290.425659 782.171387,283.287537 
	C776.433044,278.657867 769.987488,275.446960 763.877747,271.699341 
	C753.319458,265.223114 742.018433,260.066956 730.044739,256.355591 
	C722.306641,253.957092 714.989563,250.190826 707.517883,246.958694 
	C706.849976,246.669754 706.434875,246.019455 705.502380,245.961548 
	C693.286621,245.202820 685.071411,235.863007 674.607666,231.255508 
	C668.219482,228.442581 662.158936,224.471573 656.102661,220.829315 
	C647.688660,215.769119 638.149353,212.225922 631.523438,204.479950 
	C629.232971,201.802277 625.340210,201.882172 623.138000,199.850449 
	C618.107910,195.209915 612.021729,192.057938 607.011536,187.487335 
	C601.959106,182.878159 597.000000,178.166687 592.000000,173.500015 
"/>
<path fill="none" opacity="1.000000" stroke="#000000" stroke-linecap="round" stroke-linejoin="round" stroke-width="3.000000"
	d="
M772.500000,278.000000 
	C772.381226,279.565369 772.662048,280.810486 773.957275,282.044861 
	C780.349487,288.137054 785.379944,295.351562 790.539001,302.471771 
	C794.263611,307.612305 795.752563,313.862061 799.427246,319.051514 
	C803.784973,325.205597 807.861694,331.586456 811.020569,338.490570 
	C811.762390,340.111908 813.222656,340.877045 815.000000,341.000000 
"/>
<path fill="none" opacity="1.000000" stroke="#000000" stroke-linecap="round" stroke-linejoin="round" stroke-width="2.000000"
	d="
M588.000000,543.000000 
	C594.128845,546.571411 601.032227,548.264709 607.549438,550.876648 
	C613.943481,553.439148 620.820068,554.602783 627.056213,557.893433 
	C632.896423,560.975159 639.518372,560.697815 646.000549,560.518799 
	C655.332336,560.261047 665.046936,559.767761 673.286560,556.029541 
	C679.231018,553.332581 685.119080,552.743225 691.038086,551.720276 
	C695.240356,550.993896 696.844910,548.874634 698.000000,545.500000 
"/>
<path fill="none" opacity="1.000000" stroke="#000000" stroke-linecap="round" stroke-linejoin="round" stroke-width="2.000000"
	d="
M523.500000,118.500000 
	C524.820496,129.827393 521.313049,140.788956 520.945679,151.998215 
	C520.754150,157.841660 519.950073,163.662979 519.519470,169.501434 
	C519.278198,172.772491 519.009888,175.812241 517.810181,179.112747 
	C516.092957,183.836960 516.169800,189.331085 516.134705,194.500916 
	C516.116211,197.219315 514.428772,199.755966 515.500000,202.500000 
"/>
<path fill="none" opacity="1.000000" stroke="#000000" stroke-linecap="round" stroke-linejoin="round" stroke-width="6.000000"
	d="
M759.500000,485.500000 
	C758.513062,485.254944 757.563843,485.643372 756.464905,485.066925 
	C750.617004,481.999329 744.175781,482.739258 738.012512,483.176605 
	C733.813232,483.474640 730.452148,482.850677 726.955505,480.568146 
	C720.952759,476.649872 714.288086,473.820312 708.482605,469.523529 
	C704.361450,466.473389 700.221802,463.140381 694.500000,465.500000 
	C679.025940,460.207794 662.772278,463.081909 647.009094,460.933228 
	C640.182129,460.002655 633.254395,461.526306 626.471802,459.599121 
	C624.557373,459.055145 622.109375,458.937500 620.500000,461.000000 
"/>
<path fill="none" opacity="1.000000" stroke="#000000" stroke-linecap="round" stroke-linejoin="round" stroke-width="2.000000"
	d="
M385.500000,127.000000 
	C385.500000,127.333336 385.618652,127.896988 385.482941,127.966896 
	C379.140625,131.234070 374.830505,137.162399 368.102539,140.225266 
	C360.140137,143.850098 352.173401,147.399750 343.994385,150.485138 
	C341.530640,151.414566 338.915863,151.980530 336.527222,153.060226 
	C334.690796,153.890274 333.621521,153.180527 332.500000,152.000000 
"/>
<path fill="none" opacity="1.000000" stroke="#000000" stroke-linecap="round" stroke-linejoin="round" stroke-width="3.000000"
	d="
M833.500000,370.500000 
	C832.135315,378.881897 835.837891,386.299377 838.022644,393.993561 
	C839.468384,399.085114 839.576843,404.039642 837.514832,409.006165 
	C834.451294,416.385010 832.465515,424.097168 828.316772,431.185425 
	C825.804504,435.477814 823.288513,440.012390 820.811646,444.393524 
	C817.547852,450.166809 815.757324,456.355591 814.168091,462.543182 
	C812.552429,468.833893 809.879089,474.830505 809.283997,481.480682 
	C809.013733,484.500977 806.584717,487.373962 804.537048,490.028564 
	C796.291077,500.718750 786.823792,510.080872 775.500000,517.500000 
"/>
<path fill="none" opacity="1.000000" stroke="#000000" stroke-linecap="round" stroke-linejoin="round" stroke-width="2.000000"
	d="
M260.500000,171.500000 
	C261.777069,175.750534 265.083923,178.803162 268.137665,181.333893 
	C276.221344,188.033157 280.182068,197.641586 286.637512,205.385361 
	C291.063477,210.694626 294.479309,216.415344 297.500000,222.500000 
"/>
<path fill="none" opacity="1.000000" stroke="#000000" stroke-linecap="round" stroke-linejoin="round" stroke-width="5.000000"
	d="
M290.500000,328.000000 
	C291.205536,329.473663 292.832611,329.781006 294.009796,329.911621 
	C302.757599,330.882477 308.659088,337.033539 313.744751,342.727966 
	C322.792816,352.858978 333.411041,360.384430 344.958527,367.071625 
	C349.379822,369.631958 353.352325,372.974335 357.480164,376.026825 
	C358.122101,376.501556 358.943085,377.344482 358.926666,377.998169 
	C358.833679,381.700439 361.242432,383.380310 363.966797,385.054047 
	C365.157074,385.785309 366.271484,386.901306 366.500000,388.500000 
"/>
<path fill="none" opacity="1.000000" stroke="#000000" stroke-linecap="round" stroke-linejoin="round" stroke-width="3.000000"
	d="
M804.500000,385.500000 
	C809.063538,387.463837 806.237793,391.686310 806.693359,394.548798 
	C808.477539,405.759735 810.468262,417.038544 809.991821,428.499664 
	C809.880859,431.168640 809.666687,433.833344 809.500061,436.500000 
"/>
<path fill="none" opacity="1.000000" stroke="#000000" stroke-linecap="round" stroke-linejoin="round" stroke-width="3.000000"
	d="
M263.500000,262.500000 
	C263.205963,257.830688 258.935760,255.963638 256.328796,253.159134 
	C253.222107,249.817017 248.956024,247.464417 244.971313,245.047256 
	C238.953384,241.396744 233.113602,244.035080 231.538940,251.008789 
	C230.876770,253.941437 230.268860,256.866760 230.898651,260.020233 
	C231.420441,262.632874 231.525208,265.482330 230.000000,268.000000 
"/>
<path fill="none" opacity="1.000000" stroke="#000000" stroke-linecap="round" stroke-linejoin="round" stroke-width="4.000000"
	d="
M407.500000,209.500000 
	C412.110962,214.458023 415.373810,220.373596 418.944672,226.034897 
	C426.875305,238.608337 434.440369,251.409317 441.500000,264.500000 
"/>
<path fill="none" opacity="1.000000" stroke="#000000" stroke-linecap="round" stroke-linejoin="round" stroke-width="3.000000"
	d="
M518.000000,176.500000 
	C517.431824,173.959656 515.125549,174.501984 514.052246,175.094650 
	C499.151611,183.322830 483.002197,188.691071 467.424377,195.322357 
	C454.796997,200.697678 441.505676,204.516525 428.496460,208.989655 
	C424.708069,210.292252 420.877045,211.470886 417.297546,212.631134 
	C414.063660,211.511093 414.502289,207.428467 411.500000,206.500000 
"/>
<path fill="none" opacity="1.000000" stroke="#000000" stroke-linecap="round" stroke-linejoin="round" stroke-width="3.000000"
	d="
M355.500000,120.999992 
	C350.666656,122.999992 345.818604,124.965309 341.004608,127.010872 
	C337.092377,128.673248 332.986572,131.380295 329.413025,131.991867 
	C323.581696,132.989822 319.621338,137.107407 314.454590,138.303986 
	C308.898315,139.590790 304.360107,142.588882 299.552277,145.100113 
	C293.994232,148.003174 288.957611,151.897156 283.433105,154.875961 
	C281.478790,155.929733 281.462585,157.925598 279.765564,159.173645 
	C276.372192,156.579346 273.526276,159.110870 270.500000,160.500000 
"/>
<path fill="none" opacity="1.000000" stroke="#000000" stroke-linecap="round" stroke-linejoin="round" stroke-width="4.000000"
	d="
M222.500000,226.500000 
	C223.453583,235.029251 226.797195,243.346420 225.890747,251.988541 
	C224.435349,265.864410 232.139587,276.665985 236.886047,288.545532 
	C239.337296,294.680542 244.307724,293.884552 249.000000,294.500000 
"/>
<path fill="none" opacity="1.000000" stroke="#000000" stroke-linecap="round" stroke-linejoin="round" stroke-width="3.000000"
	d="
M618.500000,536.500000 
	C617.077209,532.435425 613.096130,532.798523 610.036743,531.418518 
	C605.767578,529.492798 601.753357,527.001892 597.326904,524.587463 
	C594.308838,528.380737 593.675232,532.607727 593.484131,536.999329 
	C593.439209,538.031433 593.534485,538.959290 594.505066,539.490784 
	C597.918152,541.359924 600.513000,544.589417 604.500000,545.500000 
"/>
<path fill="none" opacity="1.000000" stroke="#000000" stroke-linecap="round" stroke-linejoin="round" stroke-width="3.000000"
	d="
M349.500000,177.500000 
	C340.726349,170.991486 331.080017,170.278259 321.030640,173.592865 
	C318.657166,174.375732 316.586090,173.579010 314.517670,173.344284 
	C310.824829,172.925201 307.207825,172.261261 303.500000,173.000000 
"/>
<path fill="none" opacity="1.000000" stroke="#000000" stroke-linecap="round" stroke-linejoin="round" stroke-width="3.000000"
	d="
M602.000000,261.000000 
	C597.500000,263.666656 593.294312,267.516602 588.431824,268.726013 
	C580.914062,270.595856 575.158203,275.319092 568.474487,278.445404 
	C558.405823,283.154999 548.180359,287.531281 537.996033,291.990906 
	C528.369934,296.206116 518.500183,299.780792 508.500000,303.000000 
"/>
<path fill="none" opacity="1.000000" stroke="#000000" stroke-linecap="round" stroke-linejoin="round" stroke-width="3.000000"
	d="
M488.000000,114.000000 
	C482.449249,110.703041 476.192993,110.020554 469.994629,109.574905 
	C462.518585,109.037415 455.020630,108.760315 447.503815,108.672890 
	C440.827332,108.595230 434.854736,110.980209 428.569397,111.949814 
	C426.203461,112.314796 424.026672,110.013306 422.000000,112.000000 
"/>
<path fill="none" opacity="1.000000" stroke="#000000" stroke-linecap="round" stroke-linejoin="round" stroke-width="4.000000"
	d="
M304.000000,214.000000 
	C301.637299,208.365540 298.723114,202.894012 298.986115,196.499435 
	C299.038757,195.219757 298.855469,195.268890 297.536072,192.731247 
	C296.677948,191.080780 295.927490,189.300049 295.548706,187.489807 
	C294.703430,183.450211 296.740295,181.920441 301.000000,181.920471 
	C313.567200,181.920547 325.341919,185.833145 336.884888,189.832230 
	C341.899048,191.569397 347.831604,191.914261 352.000000,196.000000 
"/>
<path fill="none" opacity="1.000000" stroke="#000000" stroke-linecap="round" stroke-linejoin="round" stroke-width="2.000000"
	d="
M576.500000,205.500000 
	C574.353699,213.424454 575.737366,221.496216 575.512451,229.500351 
	C575.462524,231.278564 575.721436,232.628815 577.364807,234.146423 
	C579.778503,236.375488 582.760803,238.223038 583.281433,242.465469 
	C583.618225,245.209732 586.666687,243.300415 588.500000,242.500000 
"/>
<path fill="none" opacity="1.000000" stroke="#000000" stroke-linecap="round" stroke-linejoin="round" stroke-width="2.000000"
	d="
M416.500000,309.000000 
	C417.932800,311.289703 417.300751,313.424652 415.997772,315.498596 
	C414.841736,317.338623 413.391724,319.050507 412.557587,321.024323 
	C410.854340,325.054810 412.201965,328.613281 416.001709,330.997253 
	C423.563324,335.741547 427.131012,335.946411 431.875427,324.946259 
	C432.955505,322.442047 434.090515,320.589203 436.500000,319.500000 
"/>
<path fill="none" opacity="1.000000" stroke="#000000" stroke-linecap="round" stroke-linejoin="round" stroke-width="3.000000"
	d="
M594.500000,371.499969 
	C585.000000,366.333313 575.514709,361.139221 565.989929,356.018738 
	C563.523865,354.692993 561.098145,353.345642 557.986572,353.928345 
	C555.395752,354.413544 555.349670,352.369293 555.500000,350.500000 
"/>
<path fill="none" opacity="1.000000" stroke="#000000" stroke-linecap="round" stroke-linejoin="round" stroke-width="3.000000"
	d="
M135.500000,541.000000 
	C140.777267,538.326904 142.611877,533.638550 140.000000,529.500000 
	C138.377182,526.928589 134.647873,525.685486 132.499985,527.000000 
	C129.285721,528.967102 127.909218,534.890015 130.014084,537.990417 
	C131.192673,539.726501 133.017151,540.526978 135.000000,541.000000 
"/>
<path fill="none" opacity="1.000000" stroke="#000000" stroke-linecap="round" stroke-linejoin="round" stroke-width="3.000000"
	d="
M250.000000,294.500000 
	C256.280579,300.615753 259.092896,308.986847 263.969604,316.021057 
	C266.397888,319.523621 269.150970,322.574219 273.004242,324.491455 
	C274.645477,325.308075 276.333344,326.313599 278.000000,324.500000 
"/>
<path fill="none" opacity="1.000000" stroke="#000000" stroke-linecap="round" stroke-linejoin="round" stroke-width="7.000000"
	d="
M299.500000,253.500000 
	C303.522491,260.941742 304.913635,269.337158 308.176941,277.135193 
	C314.598816,292.480988 323.754150,305.987274 333.114410,319.420288 
	C337.617462,325.882690 343.337494,331.496429 348.496826,337.502716 
	C349.678009,338.877808 350.875244,340.089569 351.671234,341.925781 
	C352.702850,344.305664 355.072449,345.806244 358.000000,344.000000 
"/>
<path fill="none" opacity="1.000000" stroke="#000000" stroke-linecap="round" stroke-linejoin="round" stroke-width="3.000000"
	d="
M628.500000,466.500000 
	C626.967957,467.269592 625.435974,468.039215 623.755310,468.883484 
	C622.589661,468.284241 621.199829,467.624695 620.477905,466.009888 
	C618.729309,462.098633 614.807739,462.433228 612.066040,463.227783 
	C608.636780,464.221558 609.171265,467.913025 609.471252,471.002777 
	C610.117798,477.661469 613.578369,483.250458 617.190247,488.365662 
	C620.843140,493.539001 624.408691,498.778381 628.047852,503.966431 
	C632.162903,509.832855 637.323975,514.545715 644.500000,516.500000 
"/>
<path fill="none" opacity="1.000000" stroke="#000000" stroke-linecap="round" stroke-linejoin="round" stroke-width="3.000000"
	d="
M552.500000,141.500000 
	C555.136780,136.997864 555.158691,132.308960 553.757935,127.064896 
	C547.894653,128.366776 543.037476,131.303421 538.072144,133.652466 
	C531.499634,136.761856 531.857361,143.559662 532.133179,149.493805 
	C532.401123,155.260376 531.062439,160.830460 531.051208,166.500107 
	C531.032043,176.166397 530.225098,185.801315 530.781799,195.512512 
	C531.095032,200.975342 532.164734,206.464371 531.549683,212.005508 
	C531.387268,213.468994 531.508484,215.132874 532.058105,216.476242 
	C534.078064,221.413940 532.987549,226.533539 532.801270,231.492538 
	C532.690491,234.442520 529.910461,236.673752 527.000000,238.000000 
"/>
<path fill="none" opacity="1.000000" stroke="#000000" stroke-linecap="round" stroke-linejoin="round" stroke-width="4.000000"
	d="
M417.000000,246.500000 
	C419.109833,252.757248 423.669189,257.631683 426.578522,263.460815 
	C428.675385,267.662018 431.610992,271.436920 433.939667,275.534271 
	C434.753174,276.965637 436.394012,278.487854 435.000000,280.500000 
"/>
<path fill="none" opacity="1.000000" stroke="#000000" stroke-linecap="round" stroke-linejoin="round" stroke-width="3.000000"
	d="
M385.000000,280.500000 
	C385.649536,282.079041 387.441345,283.477112 384.040680,284.620911 
	C379.092865,286.285034 376.325073,291.252319 371.642426,293.765381 
	C369.258514,295.044739 369.455933,299.431915 369.081299,302.509888 
	C368.823853,304.624939 369.411987,306.830872 369.480042,309.000641 
	C369.564331,311.687561 371.900360,311.974762 373.522247,312.418671 
	C382.633057,314.912537 391.570007,312.964844 400.505371,311.024719 
	C406.477142,309.728027 412.500000,308.666687 418.500000,307.500000 
"/>
<path fill="none" opacity="1.000000" stroke="#000000" stroke-linecap="round" stroke-linejoin="round" stroke-width="2.000000"
	d="
M532.500000,350.500000 
	C533.843262,353.171326 537.000671,352.849762 539.023560,354.470581 
	C544.030029,358.481934 548.206848,363.308777 552.451477,368.043488 
	C555.748962,371.721649 559.256653,374.379425 564.500000,373.500000 
"/>
<path fill="none" opacity="1.000000" stroke="#000000" stroke-linecap="round" stroke-linejoin="round" stroke-width="3.000000"
	d="
M827.500000,360.500000 
	C828.588989,368.146606 828.870178,375.789703 828.082520,383.508423 
	C827.759399,386.675537 827.308472,390.100403 829.500000,393.000000 
"/>
<path fill="none" opacity="1.000000" stroke="#000000" stroke-linecap="round" stroke-linejoin="round" stroke-width="3.000000"
	d="
M533.500000,452.500000 
	C531.495911,453.853851 530.017456,452.283539 528.515686,451.471039 
	C520.520813,447.145752 513.926575,450.881775 513.477844,459.998901 
	C513.346619,462.665863 514.063354,465.389374 513.000000,468.000000 
"/>
<path fill="none" opacity="1.000000" stroke="#000000" stroke-linecap="round" stroke-linejoin="round" stroke-width="3.000000"
	d="
M757.500000,528.500000 
	C751.002930,528.377136 745.582092,532.089783 739.518494,533.575439 
	C729.782898,535.960815 720.172180,538.853394 710.497009,541.488953 
	C707.182617,542.391785 703.874756,543.452759 700.491699,543.942627 
	C692.517578,545.097229 684.559753,546.790222 676.456177,544.133606 
	C674.532898,543.503052 673.358887,542.080872 671.589111,541.298462 
	C664.737366,538.269409 659.482544,540.490295 654.493103,544.992371 
	C653.876953,545.548340 653.166687,546.000000 652.500000,546.500000 
"/>
<path fill="none" opacity="1.000000" stroke="#000000" stroke-linecap="round" stroke-linejoin="round" stroke-width="5.000000"
	d="
M406.500000,303.000000 
	C398.037964,303.528992 389.853455,305.843781 381.486481,306.892212 
	C377.732971,307.362488 373.833344,306.666687 370.000000,306.500000 
"/>
<path fill="none" opacity="1.000000" stroke="#000000" stroke-linecap="round" stroke-linejoin="round" stroke-width="4.000000"
	d="
M429.000000,277.000000 
	C431.262146,278.178162 432.646667,280.546112 435.478516,281.108215 
	C437.829498,281.574860 438.920868,283.769165 440.091339,285.950989 
	C444.360138,293.908356 449.000000,301.666687 453.500000,309.500000 
"/>
<path fill="none" opacity="1.000000" stroke="#000000" stroke-linecap="round" stroke-linejoin="round" stroke-width="4.000000"
	d="
M568.000000,501.000000 
	C570.847595,508.002869 573.649109,514.908875 569.589355,522.547485 
	C568.147949,525.259583 566.433533,526.567017 563.500000,526.500000 
"/>
<path fill="none" opacity="1.000000" stroke="#000000" stroke-linecap="round" stroke-linejoin="round" stroke-width="3.000000"
	d="
M120.500000,530.000000 
	C123.688438,531.556519 124.948334,534.445496 123.855049,537.447205 
	C122.739677,540.509521 119.414246,540.554382 116.500305,540.486816 
	C115.816078,540.471008 115.000687,540.830566 114.000000,539.149109 
	C114.000000,534.510071 114.067360,529.003784 113.963387,523.500671 
	C113.927094,521.580261 114.894882,520.680969 116.503731,520.543762 
	C118.994545,520.331421 121.475632,520.627991 122.974823,523.015808 
	C123.862419,524.429382 123.995750,526.206055 122.947639,527.456116 
	C120.911446,529.884583 118.032051,530.335876 115.000000,530.000000 
"/>
<path fill="none" opacity="1.000000" stroke="#000000" stroke-linecap="round" stroke-linejoin="round" stroke-width="2.000000"
	d="
M722.500000,513.500000 
	C721.333313,513.500000 720.040344,513.167419 719.020813,513.554688 
	C713.027893,515.831543 706.987183,517.791504 700.500549,518.016602 
	C698.225891,518.095581 696.508484,519.687012 694.500000,520.500000 
"/>
<path fill="none" opacity="1.000000" stroke="#000000" stroke-linecap="round" stroke-linejoin="round" stroke-width="2.000000"
	d="
M581.500000,160.000000 
	C589.073914,161.423874 589.101562,161.419495 590.461914,170.006027 
	C590.616089,170.979095 592.052368,171.312393 591.591553,172.222488 
	C585.663208,176.995529 583.792114,186.631714 573.376526,185.928665 
	C573.921997,194.184525 574.460999,202.342270 575.000000,210.500000 
"/>
<path fill="none" opacity="1.000000" stroke="#000000" stroke-linecap="round" stroke-linejoin="round" stroke-width="3.000000"
	d="
M317.000000,157.000000 
	C307.813385,164.777557 291.472717,165.013153 281.500000,159.000000 
"/>
<path fill="none" opacity="1.000000" stroke="#000000" stroke-linecap="round" stroke-linejoin="round" stroke-width="3.000000"
	d="
M190.000000,531.000000 
	C192.654083,530.911133 195.699097,531.827576 197.446060,528.967041 
	C198.527191,527.196716 200.312759,525.311279 198.028442,522.972229 
	C195.848389,520.739868 193.531769,519.961060 190.485397,520.955261 
	C188.390060,521.639038 189.036728,523.189941 189.023087,524.500244 
	C188.967621,529.832947 189.000000,535.166687 189.000000,540.500000 
"/>
<path fill="none" opacity="1.000000" stroke="#000000" stroke-linecap="round" stroke-linejoin="round" stroke-width="3.000000"
	d="
M164.000000,533.000000 
	C166.843109,533.000000 169.686218,533.000000 172.475739,533.000000 
	C174.004730,528.941650 171.627625,527.319336 168.970200,526.612000 
	C166.433350,525.936646 164.032166,527.135193 163.565308,530.010620 
	C163.039612,533.248352 161.743988,536.947021 165.053192,539.429077 
	C167.273621,541.094421 170.000000,542.327637 172.500000,539.500000 
"/>
<path fill="none" opacity="1.000000" stroke="#000000" stroke-linecap="round" stroke-linejoin="round" stroke-width="2.000000"
	d="
M674.500000,477.500000 
	C678.432922,477.829895 682.371033,478.572693 685.446045,481.066528 
	C689.797302,484.595367 694.741577,483.180420 699.500000,483.500000 
"/>
<path fill="none" opacity="1.000000" stroke="#000000" stroke-linecap="round" stroke-linejoin="round" stroke-width="3.000000"
	d="
M233.000000,532.500000 
	C236.379547,533.257629 239.729218,533.417786 243.372177,532.224731 
	C241.735779,529.160156 240.917801,525.702393 236.503036,527.010254 
	C233.897766,527.782104 231.171097,533.308960 232.000000,536.000000 
	C233.025742,539.330139 236.164963,541.125793 239.995728,540.474854 
	C240.864014,540.327271 242.257797,541.311157 242.500000,539.500000 
"/>
<path fill="none" opacity="1.000000" stroke="#000000" stroke-linecap="round" stroke-linejoin="round" stroke-width="3.000000"
	d="
M630.500000,362.000000 
	C633.295532,365.164581 631.814392,368.331360 629.882874,370.912354 
	C628.509521,372.747406 619.318665,371.001007 617.766663,368.987152 
	C616.923157,367.892548 616.250000,366.666656 615.500000,365.500000 
"/>
<path fill="none" opacity="1.000000" stroke="#000000" stroke-linecap="round" stroke-linejoin="round" stroke-width="3.000000"
	d="
M228.500000,527.000000 
	C220.925827,527.000000 218.346527,529.172058 219.000000,535.000000 
	C219.494522,539.410095 223.537857,541.656433 228.000000,540.000000 
"/>
<path fill="none" opacity="1.000000" stroke="#000000" stroke-linecap="round" stroke-linejoin="round" stroke-width="3.000000"
	d="
M635.500000,351.500000 
	C633.199890,350.881592 633.865234,348.202820 632.087158,346.882599 
	C627.979370,343.832550 625.099243,344.521729 623.477356,349.492615 
	C622.431335,352.698639 621.166687,355.833344 620.000000,359.000000 
"/>
<path fill="none" opacity="1.000000" stroke="#000000" stroke-linecap="round" stroke-linejoin="round" stroke-width="5.000000"
	d="
M700.500000,306.500000 
	C707.611755,308.111420 709.644897,307.404236 712.000000,302.500000 
	C713.407654,299.568756 711.833923,295.411652 708.479980,294.049286 
	C705.369690,292.785919 702.665833,293.299316 701.502991,297.000946 
	C700.120972,301.400360 698.737976,305.804230 700.000000,310.500000 
"/>
<path fill="none" opacity="1.000000" stroke="#000000" stroke-linecap="round" stroke-linejoin="round" stroke-width="3.000000"
	d="
M480.500000,233.500000 
	C474.574341,239.089478 466.201385,239.463013 459.397308,243.318771 
	C456.302643,245.072479 453.581970,248.163651 449.500000,248.000000 
"/>
<path fill="none" opacity="1.000000" stroke="#000000" stroke-linecap="round" stroke-linejoin="round" stroke-width="3.000000"
	d="
M488.500031,201.500015 
	C483.000031,209.333359 477.500031,217.166687 472.000031,225.000015 
"/>
<path fill="none" opacity="1.000000" stroke="#000000" stroke-linecap="round" stroke-linejoin="round" stroke-width="3.000000"
	d="
M409.500000,121.500000 
	C405.356262,122.239632 401.202637,120.974319 396.966492,121.835045 
	C394.506927,122.334785 391.826477,122.508476 390.609497,124.564804 
	C388.283661,128.494904 384.400055,125.480019 381.377106,127.295372 
	C376.501129,130.223572 370.833344,131.833344 365.500000,134.000015 
"/>
<path fill="none" opacity="1.000000" stroke="#000000" stroke-linecap="round" stroke-linejoin="round" stroke-width="2.000000"
	d="
M589.500000,433.500000 
	C596.978516,440.544403 605.667725,446.230530 612.500000,454.000000 
"/>
<path fill="none" opacity="1.000000" stroke="#000000" stroke-linecap="round" stroke-linejoin="round" stroke-width="5.000000"
	d="
M398.500000,397.500000 
	C402.849609,402.863525 407.337646,407.830841 413.381561,411.685730 
	C422.176483,417.295319 430.098419,424.260406 438.558807,430.419189 
	C440.207153,431.619110 440.597748,432.784454 440.500000,434.500000 
"/>
<path fill="none" opacity="1.000000" stroke="#000000" stroke-linecap="round" stroke-linejoin="round" stroke-width="3.000000"
	d="
M157.000000,520.500000 
	C157.000000,525.500000 157.057587,530.500854 156.981750,535.499695 
	C156.921234,539.487732 154.897629,540.987732 150.500000,540.500000 
"/>
<path fill="none" opacity="1.000000" stroke="#000000" stroke-linecap="round" stroke-linejoin="round" stroke-width="3.000000"
	d="
M577.000000,143.000000 
	C573.060852,142.435806 570.274658,145.195877 567.019409,146.546799 
	C563.929138,147.829269 560.675415,149.090851 558.103821,151.130859 
	C556.086304,152.731323 555.000000,150.999100 553.500000,151.000000 
"/>
<path fill="none" opacity="1.000000" stroke="#000000" stroke-linecap="round" stroke-linejoin="round" stroke-width="3.000000"
	d="
M646.500000,216.500000 
	C646.407776,225.397171 638.000977,235.672180 628.500000,238.500000 
"/>
<path fill="none" opacity="1.000000" stroke="#000000" stroke-linecap="round" stroke-linejoin="round" stroke-width="2.000000"
	d="
M575.500000,105.000000 
	C574.766174,100.238457 569.517273,98.762711 567.879822,94.546669 
	C567.422607,93.369377 565.625793,93.160873 563.976807,93.951698 
	C557.250305,97.177719 549.937988,98.890205 543.102539,101.745468 
	C541.224731,102.529861 538.632996,100.907448 537.329102,103.903008 
	C545.464294,108.338127 549.828857,115.661804 552.000000,124.500000 
"/>
<path fill="none" opacity="1.000000" stroke="#000000" stroke-linecap="round" stroke-linejoin="round" stroke-width="3.000000"
	d="
M816.000000,379.500000 
	C814.267090,383.941986 815.010803,388.450836 815.429871,393.006439 
	C815.693604,395.873505 815.993958,398.930298 814.000000,401.500000 
"/>
<path fill="none" opacity="1.000000" stroke="#000000" stroke-linecap="round" stroke-linejoin="round" stroke-width="3.000000"
	d="
M536.500000,341.500000 
	C534.493103,341.500000 532.486267,341.500000 530.610962,341.500000 
	C529.998413,344.931549 533.104126,347.438721 531.514648,350.768311 
	C518.270691,344.286957 506.876617,350.078369 495.498077,355.996307 
	C493.845123,356.855988 492.200928,357.746429 490.491547,358.480347 
	C488.231720,359.450531 487.101044,360.993958 487.500000,363.500000 
"/>
<path fill="none" opacity="1.000000" stroke="#000000" stroke-linecap="round" stroke-linejoin="round" stroke-width="4.000000"
	d="
M506.500000,298.500000 
	C504.028503,297.866180 501.579956,298.782471 499.556000,299.633240 
	C493.311157,302.258240 486.494629,303.247345 480.500000,306.500000 
"/>
<path fill="none" opacity="1.000000" stroke="#000000" stroke-linecap="round" stroke-linejoin="round" stroke-width="2.000000"
	d="
M307.000000,214.500000 
	C307.367188,208.186539 303.733978,202.899765 302.522827,196.995316 
	C302.153076,195.192810 300.357880,195.879852 299.500000,195.000000 
"/>
<path fill="none" opacity="1.000000" stroke="#000000" stroke-linecap="round" stroke-linejoin="round" stroke-width="2.000000"
	d="
M555.500000,317.500000 
	C555.291321,320.330872 555.913696,323.194427 555.019165,326.006073 
	C554.259644,328.393311 555.874146,330.031036 557.547546,330.909485 
	C560.461426,332.439240 560.675476,334.790802 560.500000,337.500000 
"/>
<path fill="none" opacity="1.000000" stroke="#000000" stroke-linecap="round" stroke-linejoin="round" stroke-width="3.000000"
	d="
M702.500000,526.000000 
	C694.478394,527.411560 686.999817,530.488342 679.500000,533.500000 
"/>
<path fill="none" opacity="1.000000" stroke="#000000" stroke-linecap="round" stroke-linejoin="round" stroke-width="3.000000"
	d="
M421.500000,112.999992 
	C415.000000,115.333328 408.500000,117.666664 402.000000,119.999992 
"/>
<path fill="none" opacity="1.000000" stroke="#000000" stroke-linecap="round" stroke-linejoin="round" stroke-width="3.000000"
	d="
M364.500000,135.000000 
	C359.506958,138.149918 354.451447,141.159210 349.036987,143.582611 
	C347.251312,144.381836 345.751312,144.679825 344.000000,144.000000 
"/>
<path fill="none" opacity="1.000000" stroke="#000000" stroke-linecap="round" stroke-linejoin="round" stroke-width="2.000000"
	d="
M807.500000,436.500000 
	C807.793030,440.114929 807.305847,443.534790 804.917786,446.614990 
	C801.412292,444.824310 797.919128,445.135315 794.500000,447.000000 
"/>
<path fill="none" opacity="1.000000" stroke="#000000" stroke-linecap="round" stroke-linejoin="round" stroke-width="6.000000"
	d="
M576.500000,105.500000 
	C574.881226,107.526878 574.767151,107.601021 575.018555,107.987930 
	C576.606262,110.431236 576.541443,113.382004 577.528992,115.989029 
	C579.820190,122.037560 579.018433,128.291306 578.960693,134.460495 
	C570.094910,137.441650 561.704102,141.352570 554.500000,147.500000 
	C554.744507,153.215317 546.754150,153.783829 547.000000,159.500000 
"/>
<path fill="none" opacity="1.000000" stroke="#000000" stroke-linecap="round" stroke-linejoin="round" stroke-width="2.000000"
	d="
M90.000000,27.000000 
	C91.303444,24.494942 93.264946,23.243399 95.976059,24.549683 
	C98.001671,25.525675 98.919922,32.502926 97.485931,34.991894 
	C95.928947,37.694321 93.362755,39.074524 90.500000,40.000000 
"/>
<path fill="none" opacity="1.000000" stroke="#000000" stroke-linecap="round" stroke-linejoin="round" stroke-width="3.000000"
	d="
M558.500000,356.000000 
	C561.546265,359.393799 565.223328,362.013733 569.008667,364.486725 
	C570.546814,365.491547 570.734375,366.954224 570.473145,368.495453 
	C570.074890,370.844360 568.172668,370.511993 566.500000,370.500000 
"/>
<path fill="none" opacity="1.000000" stroke="#000000" stroke-linecap="round" stroke-linejoin="round" stroke-width="4.000000"
	d="
M503.500000,115.500000 
	C510.360352,117.070694 516.451172,121.009224 523.500000,122.000000 
"/>
<path fill="none" opacity="1.000000" stroke="#000000" stroke-linecap="round" stroke-linejoin="round" stroke-width="2.000000"
	d="
M504.500000,123.500000 
	C496.345886,121.004280 487.725342,121.099915 479.500000,119.000000 
"/>
<path fill="none" opacity="1.000000" stroke="#000000" stroke-linecap="round" stroke-linejoin="round" stroke-width="3.000000"
	d="
M623.500000,201.000000 
	C623.303894,203.147064 623.633057,204.895447 625.443359,206.561523 
	C629.948730,210.707886 634.166687,215.166656 638.500000,219.500000 
"/>
<path fill="none" opacity="1.000000" stroke="#000000" stroke-linecap="round" stroke-linejoin="round" stroke-width="3.000000"
	d="
M582.500000,127.500000 
	C577.638306,124.732498 573.497498,127.638268 569.557373,129.614395 
	C564.981384,131.909454 560.499756,134.277206 555.500000,135.500000 
"/>
<path fill="none" opacity="1.000000" stroke="#000000" stroke-linecap="round" stroke-linejoin="round" stroke-width="3.000000"
	d="
M518.500000,457.500000 
	C519.895447,466.076294 524.193604,472.765808 531.500000,477.500000 
"/>
<path fill="none" opacity="1.000000" stroke="#000000" stroke-linecap="round" stroke-linejoin="round" stroke-width="2.000000"
	d="
M582.500000,243.000000 
	C581.140625,243.966141 579.593994,244.089706 577.999756,243.996948 
	C577.657654,247.037231 575.889954,248.569977 573.022217,249.564072 
	C567.232178,251.571152 562.574646,256.018524 556.500000,257.500000 
"/>
<path fill="none" opacity="1.000000" stroke="#000000" stroke-linecap="round" stroke-linejoin="round" stroke-width="3.000000"
	d="
M93.500000,521.000000 
	C90.490753,521.000000 87.481506,521.000000 84.000000,521.000000 
	C84.000000,527.824585 84.000000,534.162292 84.000000,540.500000 
"/>
<path fill="none" opacity="1.000000" stroke="#000000" stroke-linecap="round" stroke-linejoin="round" stroke-width="3.000000"
	d="
M275.000000,275.000000 
	C280.416168,280.438904 283.322601,287.547333 286.808014,294.102081 
	C292.478271,304.765839 295.904846,316.457336 299.469391,328.009430 
	C299.704193,328.770325 299.500000,329.666656 299.500000,330.500000 
"/>
<path fill="none" opacity="1.000000" stroke="#000000" stroke-linecap="round" stroke-linejoin="round" stroke-width="5.000000"
	d="
M339.000000,249.000000 
	C341.360474,253.240982 345.767212,255.795670 349.626587,257.135345 
	C354.703735,258.897766 357.636810,262.603516 361.591125,265.369751 
	C366.200775,268.594391 371.477325,270.877289 376.513275,273.474274 
	C378.105377,274.295288 378.852936,275.813049 380.007996,276.992188 
	C381.641693,278.659851 383.194305,280.600311 386.000000,279.500000 
"/>
<path fill="none" opacity="1.000000" stroke="#000000" stroke-linecap="round" stroke-linejoin="round" stroke-width="5.000000"
	d="
M833.000000,383.500000 
	C831.397217,392.423279 827.934387,400.815887 826.544983,409.930634 
	C825.373657,417.614746 822.301514,425.512787 818.051086,432.530945 
	C817.554749,433.350525 815.528809,434.967407 818.500000,435.500000 
"/>
<path fill="none" opacity="1.000000" stroke="#000000" stroke-linecap="round" stroke-linejoin="round" stroke-width="2.000000"
	d="
M251.500000,217.500000 
	C255.190277,215.204315 255.171677,213.615250 252.563705,208.964279 
	C250.100357,204.571213 248.166672,207.923416 245.864227,209.075073 
	C244.115875,207.909866 242.307938,206.704941 240.500000,205.500000 
"/>
<path fill="none" opacity="1.000000" stroke="#000000" stroke-linecap="round" stroke-linejoin="round" stroke-width="3.000000"
	d="
M515.000000,203.500000 
	C513.585999,210.430878 511.222504,217.106323 512.205933,224.538910 
	C512.571106,227.299088 511.976379,230.897308 510.640472,234.059341 
	C509.288452,237.259552 508.634827,240.876404 509.000000,244.500000 
"/>
<path fill="none" opacity="1.000000" stroke="#000000" stroke-linecap="round" stroke-linejoin="round" stroke-width="4.000000"
	d="
M373.500000,203.500000 
	C367.938965,204.270538 363.498444,200.832458 358.518280,199.434906 
	C356.618134,198.901657 355.266357,196.880692 353.000000,197.000000 
"/>
<path fill="none" opacity="1.000000" stroke="#000000" stroke-linecap="round" stroke-linejoin="round" stroke-width="5.000000"
	d="
M291.500000,316.500000 
	C291.500000,317.166656 291.392639,317.854279 291.517914,318.496490 
	C292.188110,321.932098 291.602142,325.176300 288.923584,327.408295 
	C287.356598,328.714020 279.164978,326.218536 278.143463,323.935791 
	C276.996246,321.372131 274.023163,320.342926 273.500000,317.500000 
"/>
<path fill="none" opacity="1.000000" stroke="#000000" stroke-linecap="round" stroke-linejoin="round" stroke-width="2.000000"
	d="
M355.500000,347.500000 
	C360.833344,351.833344 366.166656,356.166656 371.500000,360.500000 
"/>
<path fill="none" opacity="1.000000" stroke="#000000" stroke-linecap="round" stroke-linejoin="round" stroke-width="3.000000"
	d="
M288.000000,523.500000 
	C288.000000,528.000000 288.023468,532.500183 287.992035,536.999939 
	C287.969849,540.177002 288.987030,541.921448 292.500000,540.500000 
"/>
<path fill="none" opacity="1.000000" stroke="#000000" stroke-linecap="round" stroke-linejoin="round" stroke-width="2.000000"
	d="
M779.500000,486.500000 
	C773.712158,488.498169 770.870972,493.201965 769.131470,498.542816 
	C768.557556,500.304962 767.997437,500.663483 766.500000,500.500000 
"/>
<path fill="none" opacity="1.000000" stroke="#000000" stroke-linecap="round" stroke-linejoin="round" stroke-width="3.000000"
	d="
M218.000000,181.000000 
	C219.984024,183.000000 218.111328,184.991882 218.072495,187.001404 
	C217.900375,195.910568 218.609604,204.705643 220.144882,213.561569 
	C220.816879,217.437943 221.499252,221.500092 222.000000,225.500000 
"/>
<path fill="none" opacity="1.000000" stroke="#000000" stroke-linecap="round" stroke-linejoin="round" stroke-width="4.000000"
	d="
M548.500000,495.500000 
	C546.931458,501.314941 548.933411,506.460388 551.500000,511.500000 
"/>
<path fill="none" opacity="1.000000" stroke="#000000" stroke-linecap="round" stroke-linejoin="round" stroke-width="3.000000"
	d="
M636.000000,224.000000 
	C630.482605,226.578384 629.499573,232.335388 627.742249,237.089539 
	C626.378357,240.779404 624.310181,243.237183 621.500610,245.500732 
	C616.331909,249.664932 611.166687,253.833328 606.000000,258.000000 
"/>
<path fill="none" opacity="1.000000" stroke="#000000" stroke-linecap="round" stroke-linejoin="round" stroke-width="3.000000"
	d="
M326.500000,234.500000 
	C328.741089,234.925568 329.828094,236.868423 330.395386,238.535599 
	C332.009308,243.278595 335.080383,245.342453 339.979858,246.125931 
	C345.488800,247.006882 349.763672,250.415436 353.000000,255.000000 
"/>
<path fill="none" opacity="1.000000" stroke="#000000" stroke-linecap="round" stroke-linejoin="round" stroke-width="2.000000"
	d="
M572.500000,114.500000 
	C566.931152,119.684074 560.427856,123.538345 554.000000,127.500000 
"/>
<path fill="none" opacity="1.000000" stroke="#000000" stroke-linecap="round" stroke-linejoin="round" stroke-width="5.000000"
	d="
M624.000000,351.000000 
	C627.112976,352.968964 630.796204,351.136597 634.043701,352.735809 
	C635.862366,362.548920 627.450317,363.716187 619.000000,360.500000 
	C616.598389,361.895203 616.106689,365.373993 613.000000,366.000000 
"/>
<path fill="none" opacity="1.000000" stroke="#000000" stroke-linecap="round" stroke-linejoin="round" stroke-width="3.000000"
	d="
M816.750000,351.000000 
	C816.344116,352.000000 816.142944,353.166046 816.787292,353.970093 
	C819.065796,356.812958 817.815857,359.555695 817.063782,362.516205 
	C815.628235,368.167603 816.170044,374.073395 817.708435,379.440247 
	C819.516052,385.746613 819.662476,392.232056 821.173523,398.457886 
	C822.513000,403.976929 820.919983,409.671326 823.000000,415.000000 
"/>
<path fill="none" opacity="1.000000" stroke="#000000" stroke-linecap="round" stroke-linejoin="round" stroke-width="4.000000"
	d="
M274.000000,273.750000 
	C272.110931,273.793091 271.992401,271.826843 271.630707,270.946320 
	C269.348358,265.390198 264.937256,262.940552 259.510284,261.462311 
	C253.908340,259.936401 252.011688,261.253906 251.500000,267.500000 
"/>
<path fill="none" opacity="1.000000" stroke="#000000" stroke-linecap="round" stroke-linejoin="round" stroke-width="3.000000"
	d="
M694.999939,306.499969 
	C694.166626,307.666626 693.430176,308.920471 692.477234,309.979553 
	C691.056641,311.558472 691.359619,312.783447 692.403137,314.556976 
	C693.601990,316.594391 695.208191,316.484924 697.000000,316.501251 
	C699.505493,316.524048 699.261841,314.441742 699.429565,312.991852 
	C699.597473,311.539978 699.389282,310.178070 701.500000,310.500000 
"/>
<path fill="none" opacity="1.000000" stroke="#000000" stroke-linecap="round" stroke-linejoin="round" stroke-width="2.000000"
	d="
M511.500000,458.500000 
	C511.628845,462.683014 510.293396,467.391541 512.658020,470.893280 
	C516.363953,476.381470 515.800049,483.596161 520.500000,488.500000 
"/>
<path fill="none" opacity="1.000000" stroke="#000000" stroke-linecap="round" stroke-linejoin="round" stroke-width="5.000000"
	d="
M553.500000,493.500000 
	C554.409180,498.307068 558.995850,497.469879 562.031860,498.933960 
	C563.514465,499.648956 565.333313,499.666626 567.000000,499.999969 
"/>
<path fill="none" opacity="1.000000" stroke="#000000" stroke-linecap="round" stroke-linejoin="round" stroke-width="6.000000"
	d="
M471.500000,311.500000 
	C466.597168,313.290802 461.462555,312.575989 456.551666,313.043182 
	C449.525452,313.711639 443.228546,310.595581 436.500000,311.500000 
"/>
<path fill="none" opacity="1.000000" stroke="#000000" stroke-linecap="round" stroke-linejoin="round" stroke-width="2.000000"
	d="
M105.999992,532.000000 
	C104.499992,532.333313 103.000542,532.669128 101.499847,532.999329 
	C99.348274,533.472778 98.131691,534.647278 97.957619,536.996887 
	C97.802620,539.089050 99.255898,540.438965 100.547066,540.853333 
	C102.635941,541.523621 104.663231,539.892090 106.432961,538.882507 
	C107.848213,538.075073 106.721855,529.238098 105.519920,527.980957 
	C103.277588,525.635681 100.910484,526.586609 98.500000,527.500000 
"/>
<path fill="none" opacity="1.000000" stroke="#000000" stroke-linecap="round" stroke-linejoin="round" stroke-width="4.000000"
	d="
M822.000000,341.000000 
	C825.393860,346.355438 826.828796,352.382507 828.000000,358.500000 
"/>
<path fill="none" opacity="1.000000" stroke="#000000" stroke-linecap="round" stroke-linejoin="round" stroke-width="2.000000"
	d="
M212.000000,532.000000 
	C210.169739,533.178955 207.708633,531.689270 205.984848,533.485474 
	C204.614975,534.912964 203.290802,536.654053 204.161850,538.420166 
	C204.653656,539.417419 205.261765,541.691101 208.063690,540.675781 
	C210.279831,539.872681 212.549377,539.609131 212.930679,536.989929 
	C213.263306,534.705017 213.276703,532.291748 212.933853,530.009949 
	C212.443497,526.746460 209.372330,525.929138 204.500000,527.500000 
"/>
<path fill="none" opacity="1.000000" stroke="#000000" stroke-linecap="round" stroke-linejoin="round" stroke-width="2.000000"
	d="
M655.500000,470.000000 
	C651.546631,472.820557 648.220398,468.811340 644.498657,468.968506 
	C643.507446,469.010345 642.500000,468.666656 641.500000,468.500000 
"/>
<path fill="none" opacity="1.000000" stroke="#000000" stroke-linecap="round" stroke-linejoin="round" stroke-width="2.000000"
	d="
M709.000000,307.500000 
	C711.212585,314.136780 709.917786,316.191162 703.521118,315.341003 
	C702.044617,315.144745 700.833313,315.756042 699.500000,315.500000 
"/>
<path fill="none" opacity="1.000000" stroke="#000000" stroke-linecap="round" stroke-linejoin="round" stroke-width="2.000000"
	d="
M495.500000,227.500000 
	C492.833344,231.833328 490.166656,236.166672 487.500000,240.500000 
"/>
<path fill="none" opacity="1.000000" stroke="#000000" stroke-linecap="round" stroke-linejoin="round" stroke-width="3.000000"
	d="
M391.500000,122.000000 
	C386.333649,120.035042 381.987732,122.664589 377.500000,124.500000 
"/>
<path fill="none" opacity="1.000000" stroke="#000000" stroke-linecap="round" stroke-linejoin="round" stroke-width="3.000000"
	d="
M280.000000,526.500000 
	C280.000000,531.166687 280.000000,535.833313 280.000000,540.500000 
"/>
<path fill="none" opacity="1.000000" stroke="#000000" stroke-linecap="round" stroke-linejoin="round" stroke-width="3.000000"
	d="
M305.000000,215.250000 
	C306.993774,214.898773 308.729156,214.490555 310.072754,216.960419 
	C312.734375,221.853149 317.050018,225.283325 321.500000,228.500000 
"/>
<path fill="none" opacity="1.000000" stroke="#000000" stroke-linecap="round" stroke-linejoin="round" stroke-width="5.000000"
	d="
M541.500000,462.000000 
	C540.174438,466.426514 539.446594,470.897278 540.500000,475.500000 
"/>
<path fill="none" opacity="1.000000" stroke="#000000" stroke-linecap="round" stroke-linejoin="round" stroke-width="2.000000"
	d="
M530.500000,351.500000 
	C530.263306,352.491302 530.300598,354.374908 529.042969,353.888794 
	C525.331543,352.454163 522.010376,354.551819 518.500000,354.500000 
"/>
<path fill="none" opacity="1.000000" stroke="#000000" stroke-linecap="round" stroke-linejoin="round" stroke-width="4.000000"
	d="
M249.000000,151.500000 
	C246.936310,153.393921 247.032196,156.052979 246.489029,158.497559 
	C245.727783,161.923630 242.917343,164.231445 240.500000,163.500000 
"/>
<path fill="none" opacity="1.000000" stroke="#000000" stroke-linecap="round" stroke-linejoin="round" stroke-width="3.000000"
	d="
M768.500000,503.500000 
	C763.370300,504.078369 762.192749,508.962952 759.672791,512.137146 
	C758.169312,514.031006 756.850647,516.913391 755.290161,518.256104 
	C751.685974,521.357300 752.654358,523.166687 755.500000,525.500000 
"/>
<path fill="none" opacity="1.000000" stroke="#000000" stroke-linecap="round" stroke-linejoin="round" stroke-width="5.000000"
	d="
M370.500000,205.000000 
	C378.725311,208.912201 386.503052,213.957977 395.526764,215.873962 
	C398.552429,216.516418 398.495880,218.707367 399.500000,220.500000 
"/>
<path fill="none" opacity="1.000000" stroke="#000000" stroke-linecap="round" stroke-linejoin="round" stroke-width="3.000000"
	d="
M179.500000,528.000000 
	C179.163147,532.558350 177.185425,537.432312 182.000000,541.000000 
"/>
<path fill="none" opacity="1.000000" stroke="#000000" stroke-linecap="round" stroke-linejoin="round" stroke-width="2.000000"
	d="
M555.500000,285.500000 
	C556.166687,289.833344 556.833313,294.166656 557.500000,298.500000 
"/>
<path fill="none" opacity="1.000000" stroke="#000000" stroke-linecap="round" stroke-linejoin="round" stroke-width="7.000000"
	d="
M238.000000,270.250000 
	C242.729538,274.240967 244.656403,279.424347 244.504196,285.500092 
	C244.474991,286.666016 244.500000,287.833344 244.500000,289.000000 
"/>
<path fill="none" opacity="1.000000" stroke="#000000" stroke-linecap="round" stroke-linejoin="round" stroke-width="3.000000"
	d="
M624.500000,485.500000 
	C629.891846,487.129730 634.975708,489.471924 640.051575,491.891785 
	C641.384583,492.527344 643.671387,495.046967 645.000000,491.500000 
"/>
<path fill="none" opacity="1.000000" stroke="#000000" stroke-linecap="round" stroke-linejoin="round" stroke-width="3.000000"
	d="
M415.000000,213.000000 
	C410.665375,215.549484 405.657501,214.956863 400.998291,215.992294 
	C400.010040,216.211914 399.000000,216.333344 398.000000,216.500015 
"/>
<path fill="none" opacity="1.000000" stroke="#000000" stroke-linecap="round" stroke-linejoin="round" stroke-width="2.000000"
	d="
M114.500000,33.500000 
	C115.166664,34.000000 116.335602,34.426178 116.421631,35.011517 
	C117.206970,40.354683 120.766548,39.800232 124.500000,39.000000 
"/>
<path fill="none" opacity="1.000000" stroke="#000000" stroke-linecap="round" stroke-linejoin="round" stroke-width="2.000000"
	d="
M372.500000,378.500000 
	C376.500000,381.500000 380.500000,384.500000 384.500000,387.500000 
"/>
<path fill="none" opacity="1.000000" stroke="#000000" stroke-linecap="round" stroke-linejoin="round" stroke-width="3.000000"
	d="
M453.500000,437.500000 
	C451.666656,436.000000 449.992859,434.213348 447.955658,433.079651 
	C445.867767,431.917694 443.478058,430.640442 441.000000,432.500000 
"/>
<path fill="none" opacity="1.000000" stroke="#000000" stroke-linecap="round" stroke-linejoin="round" stroke-width="2.000000"
	d="
M528.000000,355.000000 
	C527.666687,355.500000 527.331238,356.437469 527.000305,356.435883 
	C519.137451,356.398438 511.741089,359.327423 503.997742,359.973083 
	C503.515015,360.013336 503.000000,359.666656 502.500000,359.500000 
"/>
<path fill="none" opacity="1.000000" stroke="#000000" stroke-linecap="round" stroke-linejoin="round" stroke-width="4.000000"
	d="
M306.000000,216.000000 
	C306.243896,220.461395 308.295013,223.789001 311.363586,227.125458 
	C315.353882,231.464157 320.012146,234.835464 324.453125,238.555939 
	C326.168793,239.993240 327.914673,240.526276 330.000000,240.500000 
"/>
<path fill="none" opacity="1.000000" stroke="#000000" stroke-linecap="round" stroke-linejoin="round" stroke-width="2.000000"
	d="
M622.500000,488.500000 
	C626.082092,491.282928 631.411743,491.662994 633.500000,496.500000 
"/>
<path fill="none" opacity="1.000000" stroke="#000000" stroke-linecap="round" stroke-linejoin="round" stroke-width="4.000000"
	d="
M282.500000,120.000000 
	C276.537628,122.912994 271.076965,126.888443 264.500000,128.500000 
"/>
<path fill="none" opacity="1.000000" stroke="#000000" stroke-linecap="round" stroke-linejoin="round" stroke-width="2.000000"
	d="
M340.500000,135.500000 
	C336.466034,137.085129 332.028717,137.702225 328.500000,140.500000 
"/>
<path fill="none" opacity="1.000000" stroke="#000000" stroke-linecap="round" stroke-linejoin="round" stroke-width="3.000000"
	d="
M255.500000,266.500000 
	C256.163422,272.568390 257.224915,278.424500 263.500000,281.500000 
"/>
<path fill="none" opacity="1.000000" stroke="#000000" stroke-linecap="round" stroke-linejoin="round" stroke-width="2.000000"
	d="
M690.500000,523.500000 
	C685.668884,525.194702 681.426147,528.026855 677.007568,530.513489 
	C675.034241,531.624023 676.402466,532.066040 677.500000,532.500000 
"/>
<path fill="none" opacity="1.000000" stroke="#000000" stroke-linecap="round" stroke-linejoin="round" stroke-width="3.000000"
	d="
M356.500000,340.500000 
	C359.364410,346.530670 364.598877,350.360565 369.500000,354.500000 
"/>
<path fill="none" opacity="1.000000" stroke="#000000" stroke-linecap="round" stroke-linejoin="round" stroke-width="2.000000"
	d="
M72.500000,26.500000 
	C78.537331,28.553415 78.866722,29.092424 78.000000,35.500000 
"/>
<path fill="none" opacity="1.000000" stroke="#000000" stroke-linecap="round" stroke-linejoin="round" stroke-width="2.000000"
	d="
M799.500000,476.500000 
	C798.151917,476.451111 797.641296,473.862427 795.389038,475.875916 
	C792.298035,478.639343 788.765625,480.889069 786.500000,484.500000 
"/>
<path fill="none" opacity="1.000000" stroke="#000000" stroke-linecap="round" stroke-linejoin="round" stroke-width="3.000000"
	d="
M808.000000,390.000000 
	C811.401306,393.079132 811.132263,397.754089 813.000000,401.500000 
"/>
<path fill="none" opacity="1.000000" stroke="#000000" stroke-linecap="round" stroke-linejoin="round" stroke-width="3.000000"
	d="
M559.500000,526.500000 
	C554.949707,527.159973 552.444092,522.821838 548.500000,522.000000 
"/>
<path fill="none" opacity="1.000000" stroke="#000000" stroke-linecap="round" stroke-linejoin="round" stroke-width="3.000000"
	d="
M719.500000,519.000000 
	C715.441528,519.542297 712.708618,523.324829 708.500000,523.500000 
"/>
<path fill="none" opacity="1.000000" stroke="#000000" stroke-linecap="round" stroke-linejoin="round" stroke-width="2.000000"
	d="
M495.500000,249.500000 
	C495.803162,251.700790 495.002228,253.589874 494.046753,255.523102 
	C493.298004,257.038086 491.477173,258.462097 493.000000,260.500000 
"/>
<path fill="none" opacity="1.000000" stroke="#000000" stroke-linecap="round" stroke-linejoin="round" stroke-width="2.000000"
	d="
M328.000000,276.500000 
	C328.879089,275.618744 329.307770,274.497772 328.473389,273.522766 
	C323.740784,267.992828 319.655334,261.578949 311.500000,260.500000 
"/>
<path fill="none" opacity="1.000000" stroke="#000000" stroke-linecap="round" stroke-linejoin="round" stroke-width="2.000000"
	d="
M268.000000,530.500000 
	C270.960571,533.487915 271.944550,537.958252 275.500000,540.500000 
"/>
<path fill="none" opacity="1.000000" stroke="#000000" stroke-linecap="round" stroke-linejoin="round" stroke-width="3.000000"
	d="
M248.000000,526.500000 
	C248.000000,531.166687 248.000000,535.833313 248.000000,540.500000 
"/>
<path fill="none" opacity="1.000000" stroke="#000000" stroke-linecap="round" stroke-linejoin="round" stroke-width="3.000000"
	d="
M820.000000,360.500000 
	C822.031738,364.592072 822.045837,368.618988 820.662354,373.050690 
	C819.888977,375.528046 818.491150,373.982269 817.500000,374.500000 
"/>
<path fill="none" opacity="1.000000" stroke="#000000" stroke-linecap="round" stroke-linejoin="round" stroke-width="3.000000"
	d="
M337.500000,108.500000 
	C333.833344,108.772141 330.166656,106.820488 326.500000,108.500000 
"/>
<path fill="none" opacity="1.000000" stroke="#000000" stroke-linecap="round" stroke-linejoin="round" stroke-width="3.000000"
	d="
M314.500000,110.500000 
	C312.279022,109.960739 310.353699,109.935532 307.937134,110.830200 
	C301.623749,113.167564 294.991699,114.638313 288.509521,116.532616 
	C287.607147,116.796333 286.833344,117.500000 286.000000,118.000000 
"/>
<path fill="none" opacity="1.000000" stroke="#000000" stroke-linecap="round" stroke-linejoin="round" stroke-width="2.000000"
	d="
M358.500000,186.500000 
	C362.166656,189.166672 365.833344,191.833328 369.500000,194.500000 
"/>
<path fill="none" opacity="1.000000" stroke="#000000" stroke-linecap="round" stroke-linejoin="round" stroke-width="2.000000"
	d="
M276.000000,299.500000 
	C271.537750,306.325562 277.204712,311.065704 279.500000,316.500000 
"/>
<path fill="none" opacity="1.000000" stroke="#000000" stroke-linecap="round" stroke-linejoin="round" stroke-width="3.000000"
	d="
M635.500000,499.500000 
	C636.677979,503.074219 639.702332,506.396667 637.000000,510.500000 
"/>
<path fill="none" opacity="1.000000" stroke="#000000" stroke-linecap="round" stroke-linejoin="round" stroke-width="4.000000"
	d="
M455.500000,285.500000 
	C454.861969,290.989777 459.515411,294.589752 460.500000,299.500000 
"/>
<path fill="none" opacity="1.000000" stroke="#000000" stroke-linecap="round" stroke-linejoin="round" stroke-width="2.000000"
	d="
M503.500000,361.000000 
	C500.000000,362.166687 496.499359,363.331451 493.006348,364.518677 
	C492.955566,364.535950 492.940704,364.868256 493.013580,364.992004 
	C493.129364,365.188629 493.333344,365.333313 493.500000,365.500000 
"/>
<path fill="none" opacity="1.000000" stroke="#000000" stroke-linecap="round" stroke-linejoin="round" stroke-width="3.000000"
	d="
M507.500000,303.500000 
	C502.372528,304.355286 497.214386,305.854034 492.639221,307.823456 
	C487.334808,310.106781 481.552094,309.844299 476.440399,312.379883 
	C475.338318,312.926544 473.479370,311.947449 470.748199,311.447845 
	C473.759705,310.745636 470.857483,307.077576 474.500000,307.500000 
"/>
<path fill="none" opacity="1.000000" stroke="#000000" stroke-linecap="round" stroke-linejoin="round" stroke-width="2.000000"
	d="
M617.500000,448.500000 
	C620.446350,451.650391 622.477356,455.944977 627.500000,456.500000 
"/>
<path fill="none" opacity="1.000000" stroke="#000000" stroke-linecap="round" stroke-linejoin="round" stroke-width="3.000000"
	d="
M264.000000,520.500000 
	C264.000000,527.166687 264.000000,533.833313 264.000000,540.500000 
"/>
<path fill="none" opacity="1.000000" stroke="#000000" stroke-linecap="round" stroke-linejoin="round" stroke-width="2.000000"
	d="
M468.000000,118.000000 
	C464.541748,119.043419 460.996277,118.255096 457.500000,118.500000 
"/>
<path fill="none" opacity="1.000000" stroke="#000000" stroke-linecap="round" stroke-linejoin="round" stroke-width="5.000000"
	d="
M272.750000,274.000000 
	C270.342834,277.345917 272.106781,280.989777 272.000000,284.500000 
"/>
<path fill="none" opacity="1.000000" stroke="#000000" stroke-linecap="round" stroke-linejoin="round" stroke-width="2.000000"
	d="
M495.500031,257.500000 
	C493.833344,260.833344 492.166687,264.166687 490.500031,267.500000 
"/>
<path fill="none" opacity="1.000000" stroke="#000000" stroke-linecap="round" stroke-linejoin="round" stroke-width="3.000000"
	d="
M492.000000,243.000000 
	C489.833313,246.166656 487.666656,249.333328 485.500000,252.500000 
"/>
<path fill="none" opacity="1.000000" stroke="#000000" stroke-linecap="round" stroke-linejoin="round" stroke-width="3.000000"
	d="
M537.000000,103.500000 
	C531.321838,104.087601 529.033875,106.248421 528.000000,112.000000 
"/>
<path fill="none" opacity="1.000000" stroke="#000000" stroke-linecap="round" stroke-linejoin="round" stroke-width="6.000000"
	d="
M579.000000,135.500000 
	C578.333313,141.333328 577.666626,147.166672 577.000000,153.000000 
"/>
<path fill="none" opacity="1.000000" stroke="#000000" stroke-linecap="round" stroke-linejoin="round" stroke-width="5.000000"
	d="
M544.500000,485.000000 
	C544.333313,485.666656 544.342651,486.789124 543.973633,486.931641 
	C538.414246,489.078156 534.380615,493.968506 528.500000,495.500000 
"/>
<path fill="none" opacity="1.000000" stroke="#000000" stroke-linecap="round" stroke-linejoin="round" stroke-width="8.000000"
	d="
M72.500000,24.000000 
	C71.616714,26.281315 71.493042,26.167347 69.779320,28.027016 
	C67.281036,30.738052 64.510658,33.372120 64.500000,37.500000 
"/>
<path fill="none" opacity="1.000000" stroke="#000000" stroke-linecap="round" stroke-linejoin="round" stroke-width="2.000000"
	d="
M580.000000,143.500000 
	C582.308899,148.763504 585.470215,153.820358 584.000000,160.000000 
"/>
<path fill="none" opacity="1.000000" stroke="#000000" stroke-linecap="round" stroke-linejoin="round" stroke-width="4.000000"
	d="
M651.500000,477.500000 
	C654.320435,479.449371 657.258118,480.343658 660.500000,478.500000 
"/>
<path fill="none" opacity="1.000000" stroke="#000000" stroke-linecap="round" stroke-linejoin="round" stroke-width="3.000000"
	d="
M195.500000,531.500000 
	C198.370697,533.837341 198.198196,537.358093 199.000000,540.500000 
"/>
<path fill="none" opacity="1.000000" stroke="#000000" stroke-linecap="round" stroke-linejoin="round" stroke-width="4.000000"
	d="
M532.500000,495.000000 
	C536.447205,496.491852 539.199768,498.686401 537.500000,503.500000 
"/>
<path fill="none" opacity="1.000000" stroke="#000000" stroke-linecap="round" stroke-linejoin="round" stroke-width="2.000000"
	d="
M608.500000,467.500000 
	C605.688232,465.472717 602.460938,467.184998 599.500000,466.500000 
"/>
<path fill="none" opacity="1.000000" stroke="#000000" stroke-linecap="round" stroke-linejoin="round" stroke-width="3.000000"
	d="
M327.000000,137.500000 
	C328.639221,141.362167 329.757263,145.376343 330.500000,149.500000 
"/>
<path fill="none" opacity="1.000000" stroke="#000000" stroke-linecap="round" stroke-linejoin="round" stroke-width="3.000000"
	d="
M280.000000,302.000000 
	C283.585785,304.474487 286.287750,308.642914 291.500000,308.000000 
"/>
<path fill="none" opacity="1.000000" stroke="#000000" stroke-linecap="round" stroke-linejoin="round" stroke-width="3.000000"
	d="
M274.000000,521.000000 
	C271.450378,523.540466 268.919312,526.095154 267.500000,529.500000 
"/>
<path fill="none" opacity="1.000000" stroke="#000000" stroke-linecap="round" stroke-linejoin="round" stroke-width="2.000000"
	d="
M353.000000,111.500000 
	C355.700653,113.250618 359.807617,112.344879 361.500000,116.000000 
"/>
<path fill="none" opacity="1.000000" stroke="#000000" stroke-linecap="round" stroke-linejoin="round" stroke-width="3.000000"
	d="
M549.500000,147.500000 
	C547.500061,147.433350 547.820618,148.984100 548.062378,149.984940 
	C548.429993,151.507187 549.850098,152.716629 549.500000,154.500000 
"/>
<path fill="none" opacity="1.000000" stroke="#000000" stroke-linecap="round" stroke-linejoin="round" stroke-width="2.000000"
	d="
M506.500000,119.500000 
	C505.666656,119.500000 504.833344,119.500000 503.741638,119.500000 
	C505.408875,122.879219 509.438751,121.343979 511.500000,123.500000 
"/>
<path fill="none" opacity="1.000000" stroke="#000000" stroke-linecap="round" stroke-linejoin="round" stroke-width="2.000000"
	d="
M332.500000,159.500000 
	C329.506775,159.711685 327.180267,157.789825 324.500000,157.000000 
"/>
<path fill="none" opacity="1.000000" stroke="#000000" stroke-linecap="round" stroke-linejoin="round" stroke-width="6.000000"
	d="
M309.500000,262.500000 
	C313.043182,268.727539 319.148712,272.200592 324.467041,276.540405 
	C326.276764,278.017151 328.998047,278.668610 329.500000,281.500000 
"/>
<path fill="none" opacity="1.000000" stroke="#000000" stroke-linecap="round" stroke-linejoin="round" stroke-width="2.000000"
	d="
M245.500000,252.500000 
	C242.620728,252.853958 241.486084,256.946350 238.000000,256.000000 
	C237.985199,256.833344 236.764679,257.666656 238.000000,258.500000 
"/>
<path fill="none" opacity="1.000000" stroke="#000000" stroke-linecap="round" stroke-linejoin="round" stroke-width="2.000000"
	d="
M501.500000,259.500000 
	C502.520111,259.772980 503.255127,260.901306 504.501648,260.487915 
	C505.205780,255.282181 505.205780,255.282181 501.500000,256.500000 
"/>
<path fill="none" opacity="1.000000" stroke="#000000" stroke-linecap="round" stroke-linejoin="round" stroke-width="4.000000"
	d="
M403.500000,405.000000 
	C399.456360,406.980713 398.531494,401.832733 395.500000,401.500000 
"/>
<path fill="none" opacity="1.000000" stroke="#000000" stroke-linecap="round" stroke-linejoin="round" stroke-width="3.000000"
	d="
M326.500000,141.000000 
	C326.166656,141.333344 325.870880,141.900528 325.493744,141.961060 
	C323.443665,142.290100 319.926086,141.087067 319.785919,143.516495 
	C319.616852,146.446823 316.730347,149.500000 319.500000,152.500000 
"/>
<path fill="none" opacity="1.000000" stroke="#000000" stroke-linecap="round" stroke-linejoin="round" stroke-width="3.000000"
	d="
M92.500000,530.000000 
	C90.002274,530.200806 87.445328,529.513184 85.000000,530.500000 
"/>
<path fill="none" opacity="1.000000" stroke="#000000" stroke-linecap="round" stroke-linejoin="round" stroke-width="4.000000"
	d="
M557.500000,144.000000 
	C554.885742,144.316650 553.493835,141.114365 550.477600,141.915710 
	C544.713257,143.447189 544.500000,143.465912 544.500000,150.500000 
"/>
<path fill="none" opacity="1.000000" stroke="#000000" stroke-linecap="round" stroke-linejoin="round" stroke-width="2.000000"
	d="
M107.500000,39.500000 
	C109.981430,35.380024 114.910149,33.474258 117.140739,28.698704 
	C114.594406,27.417299 111.976120,29.024820 109.500000,28.500000 
"/>
<path fill="none" opacity="1.000000" stroke="#000000" stroke-linecap="round" stroke-linejoin="round" stroke-width="2.000000"
	d="
M524.000000,299.000000 
	C524.986816,301.445312 524.299194,304.002289 524.500000,306.500000 
"/>
<path fill="none" opacity="1.000000" stroke="#000000" stroke-linecap="round" stroke-linejoin="round" stroke-width="4.000000"
	d="
M573.500000,153.500000 
	C575.344788,155.114731 576.852966,152.278748 578.479187,153.044159 
	C580.972168,154.217529 580.416565,156.895874 581.045593,159.114548 
	C579.405579,160.376007 577.519409,160.682266 575.500000,160.500000 
"/>
<path fill="none" opacity="1.000000" stroke="#000000" stroke-linecap="round" stroke-linejoin="round" stroke-width="3.000000"
	d="
M526.500000,113.500000 
	C526.516785,115.944069 526.523560,118.386002 525.000000,120.500000 
"/>
<path fill="none" opacity="1.000000" stroke="#000000" stroke-linecap="round" stroke-linejoin="round" stroke-width="2.000000"
	d="
M618.500000,385.000000 
	C619.122253,389.161682 623.208679,387.934662 625.500000,389.500000 
"/>
<path fill="none" opacity="1.000000" stroke="#000000" stroke-linecap="round" stroke-linejoin="round" stroke-width="9.000000"
	d="
M346.500000,140.500000 
	C344.663513,140.330185 344.658417,142.005096 344.009277,143.006012 
	C343.130402,144.361115 342.393280,145.865494 340.499756,145.996613 
	C332.746124,146.533493 326.903717,152.912949 319.001190,153.063156 
	C318.658478,153.069672 318.333344,154.000000 318.000000,154.500000 
"/>
<path fill="none" opacity="1.000000" stroke="#000000" stroke-linecap="round" stroke-linejoin="round" stroke-width="2.000000"
	d="
M732.500000,486.500000 
	C730.190796,485.995209 727.737488,487.508270 725.500000,486.000000 
"/>
<path fill="none" opacity="1.000000" stroke="#000000" stroke-linecap="round" stroke-linejoin="round" stroke-width="2.000000"
	d="
M237.000000,269.000000 
	C236.205215,267.807861 235.410431,266.615753 234.516144,265.274384 
	C235.895218,263.827362 236.197906,261.193237 239.506393,261.395264 
	C242.873154,261.600830 240.595245,264.523804 242.000000,265.500000 
"/>
<path fill="none" opacity="1.000000" stroke="#000000" stroke-linecap="round" stroke-linejoin="round" stroke-width="3.000000"
	d="
M259.500000,234.500000 
	C260.005096,237.480911 263.860657,240.089554 260.500000,243.500000 
"/>
<path fill="none" opacity="1.000000" stroke="#000000" stroke-linecap="round" stroke-linejoin="round" stroke-width="3.000000"
	d="
M262.500000,131.000000 
	C259.665771,134.802292 254.726562,136.872711 253.420731,141.979736 
	C253.379837,142.139740 252.166672,142.000000 251.500000,142.000000 
"/>
<path fill="none" opacity="1.000000" stroke="#000000" stroke-linecap="round" stroke-linejoin="round" stroke-width="3.000000"
	d="
M431.500000,307.500000 
	C432.200012,309.466614 433.516174,309.136993 435.005035,308.512024 
	C437.931976,307.283356 440.111633,308.143066 441.500000,311.000000 
"/>
<path fill="none" opacity="1.000000" stroke="#000000" stroke-linecap="round" stroke-linejoin="round" stroke-width="3.000000"
	d="
M534.000000,497.000000 
	C531.828186,499.346558 533.996826,501.359222 534.500000,503.500000 
"/>
<path fill="none" opacity="1.000000" stroke="#000000" stroke-linecap="round" stroke-linejoin="round" stroke-width="3.000000"
	d="
M352.500000,110.500000 
	C348.506744,107.622787 343.696075,110.058784 339.500000,108.500000 
"/>
<path fill="none" opacity="1.000000" stroke="#000000" stroke-linecap="round" stroke-linejoin="round" stroke-width="2.000000"
	d="
M243.500000,259.500000 
	C243.266373,261.494415 244.049225,263.573547 243.000000,265.500000 
"/>
<path fill="none" opacity="1.000000" stroke="#000000" stroke-linecap="round" stroke-linejoin="round" stroke-width="3.000000"
	d="
M497.000000,467.000000 
	C495.920837,468.036316 495.166626,468.576050 496.326111,470.599640 
	C498.166718,473.812073 499.677246,477.490021 499.000000,481.500000 
"/>
<path fill="none" opacity="1.000000" stroke="#000000" stroke-linecap="round" stroke-linejoin="round" stroke-width="2.000000"
	d="
M422.500000,301.500000 
	C424.500000,302.921753 426.500000,300.790649 428.500000,301.500000 
"/>
<path fill="none" opacity="1.000000" stroke="#000000" stroke-linecap="round" stroke-linejoin="round" stroke-width="2.000000"
	d="
M587.500000,265.500000 
	C585.923218,266.945679 583.330994,267.122070 582.500000,269.500000 
"/>
<path fill="none" opacity="1.000000" stroke="#000000" stroke-linecap="round" stroke-linejoin="round" stroke-width="3.000000"
	d="
M88.500000,22.500000 
	C87.570198,26.131979 88.186234,29.834223 88.000000,33.500000 
"/>
<path fill="none" opacity="1.000000" stroke="#000000" stroke-linecap="round" stroke-linejoin="round" stroke-width="2.000000"
	d="
M552.500000,512.000000 
	C553.833313,513.833313 555.166687,515.666687 556.500000,517.500000 
"/>
<path fill="none" opacity="1.000000" stroke="#000000" stroke-linecap="round" stroke-linejoin="round" stroke-width="2.000000"
	d="
M679.500000,541.500000 
	C677.661377,541.608337 675.771790,541.156616 674.000000,542.000000 
"/>
<path fill="none" opacity="1.000000" stroke="#000000" stroke-linecap="round" stroke-linejoin="round" stroke-width="3.000000"
	d="
M64.500000,23.500000 
	C64.420197,25.491461 65.278763,27.227005 66.000000,29.000000 
"/>
<path fill="none" opacity="1.000000" stroke="#000000" stroke-linecap="round" stroke-linejoin="round" stroke-width="5.000000"
	d="
M272.500000,292.500000 
	C269.031555,294.378418 265.422699,295.870758 261.500000,296.500000 
"/>
<path fill="none" opacity="1.000000" stroke="#000000" stroke-linecap="round" stroke-linejoin="round" stroke-width="2.000000"
	d="
M650.500000,494.000000 
	C648.833313,493.666656 647.166687,493.333344 645.500000,493.000000 
"/>
<path fill="none" opacity="1.000000" stroke="#000000" stroke-linecap="round" stroke-linejoin="round" stroke-width="2.000000"
	d="
M733.500000,531.500000 
	C730.918701,531.311279 730.528809,533.000916 730.500000,535.000000 
"/>
<path fill="none" opacity="1.000000" stroke="#000000" stroke-linecap="round" stroke-linejoin="round" stroke-width="2.000000"
	d="
M270.000000,279.500000 
	C268.941315,281.077454 269.770111,282.843689 269.500000,284.500000 
"/>
<path fill="none" opacity="1.000000" stroke="#000000" stroke-linecap="round" stroke-linejoin="round" stroke-width="2.000000"
	d="
M422.500000,267.500000 
	C422.348236,269.494049 424.006653,270.764008 424.500000,272.500000 
"/>
<path fill="none" opacity="1.000000" stroke="#000000" stroke-linecap="round" stroke-linejoin="round" stroke-width="2.000000"
	d="
M278.500000,308.500000 
	C278.314423,307.759460 279.074493,306.597748 277.501068,306.485229 
	C275.862976,306.368073 276.994843,308.204468 276.000000,308.500000 
"/>
<path fill="none" opacity="1.000000" stroke="#000000" stroke-linecap="round" stroke-linejoin="round" stroke-width="2.000000"
	d="
M516.000000,231.000000 
	C515.122375,229.413757 514.687012,227.440506 512.500000,227.000000 
"/>
<path fill="none" opacity="1.000000" stroke="#000000" stroke-linecap="round" stroke-linejoin="round" stroke-width="2.000000"
	d="
M253.500000,527.000000 
	C251.392471,526.299744 250.569443,528.489563 249.000000,529.000000 
"/>
<path fill="none" opacity="1.000000" stroke="#000000" stroke-linecap="round" stroke-linejoin="round" stroke-width="3.000000"
	d="
M276.500000,293.500000 
	C273.894226,292.878204 272.512634,289.808075 269.500000,290.000000 
"/>
<path fill="none" opacity="1.000000" stroke="#000000" stroke-linecap="round" stroke-linejoin="round" stroke-width="2.000000"
	d="
M390.500000,397.500000 
	C392.239655,398.140533 393.734467,399.148285 395.000000,400.500000 
"/>
<path fill="none" opacity="1.000000" stroke="#000000" stroke-linecap="round" stroke-linejoin="round" stroke-width="3.000000"
	d="
M548.500000,486.000000 
	C545.260010,484.793365 542.254028,482.650604 538.500000,483.500000 
"/>
<path fill="none" opacity="1.000000" stroke="#000000" stroke-linecap="round" stroke-linejoin="round" stroke-width="2.000000"
	d="
M516.500000,494.500000 
	C515.000000,494.500000 513.500000,494.500000 512.000000,494.500000 
"/>
<path fill="none" opacity="1.000000" stroke="#000000" stroke-linecap="round" stroke-linejoin="round" stroke-width="2.000000"
	d="
M425.500000,299.500000 
	C421.663330,298.078339 422.290222,303.351990 419.500000,303.500000 
"/>
<path fill="none" opacity="1.000000" stroke="#000000" stroke-linecap="round" stroke-linejoin="round" stroke-width="2.000000"
	d="
M798.500000,457.000000 
	C799.299316,459.004395 798.039368,459.832031 796.500000,460.500000 
"/>
<path fill="none" opacity="1.000000" stroke="#000000" stroke-linecap="round" stroke-linejoin="round" stroke-width="2.000000"
	d="
M294.000000,317.500000 
	C292.973724,318.635986 293.933716,320.516815 292.500000,321.500000 
"/>
<path fill="none" opacity="1.000000" stroke="#000000" stroke-linecap="round" stroke-linejoin="round" stroke-width="2.000000"
	d="
M266.000000,296.500000 
	C266.636230,298.259430 264.945892,299.146362 264.500000,300.500000 
"/>
<path fill="none" opacity="1.000000" stroke="#000000" stroke-linecap="round" stroke-linejoin="round" stroke-width="2.000000"
	d="
M360.000000,379.000000 
	C362.112000,379.877380 364.326538,379.421753 366.500000,379.500000 
"/>
<path fill="none" opacity="1.000000" stroke="#000000" stroke-linecap="round" stroke-linejoin="round" stroke-width="2.000000"
	d="
M282.500000,304.500000 
	C280.363739,304.520264 280.505920,306.059509 280.500000,307.500000 
"/>
<path fill="none" opacity="1.000000" stroke="#000000" stroke-linecap="round" stroke-linejoin="round" stroke-width="2.000000"
	d="
M832.000000,365.500000 
	C831.201050,363.154388 832.008179,360.235168 829.170105,358.320129 
	C828.082947,359.749603 825.321777,359.655121 825.500000,362.500000 
"/>
<path fill="none" opacity="1.000000" stroke="#000000" stroke-linecap="round" stroke-linejoin="round" stroke-width="3.000000"
	d="
M292.500000,527.000000 
	C289.833344,527.000000 287.166656,527.000000 284.500000,527.000000 
"/>
<path fill="none" opacity="1.000000" stroke="#000000" stroke-linecap="round" stroke-linejoin="round" stroke-width="3.000000"
	d="
M183.500000,527.000000 
	C181.166672,527.000000 178.833328,527.000000 176.500000,527.000000 
"/>
<path fill="none" opacity="1.000000" stroke="#000000" stroke-linecap="round" stroke-linejoin="round" stroke-width="3.000000"
	d="
M274.500000,158.500000 
	C271.754639,157.912018 273.069977,153.263351 269.500000,153.500000 
"/>
<path fill="none" opacity="1.000000" stroke="#000000" stroke-linecap="round" stroke-linejoin="round" stroke-width="2.000000"
	d="
M370.500000,117.500000 
	C369.179352,117.231796 367.721924,118.058014 366.500000,117.000000 
"/>
<path fill="none" opacity="1.000000" stroke="#000000" stroke-linecap="round" stroke-linejoin="round" stroke-width="4.000000"
	d="
M251.000000,143.000000 
	C251.180801,145.636154 250.663406,148.132675 249.500000,150.500000 
"/>
<path fill="none" opacity="1.000000" stroke="#000000" stroke-linecap="round" stroke-linejoin="round" stroke-width="2.000000"
	d="
M245.500000,289.500000 
	C242.889908,289.861633 243.610672,291.888672 243.500000,293.500000 
"/>
<path fill="none" opacity="1.000000" stroke="#000000" stroke-linecap="round" stroke-linejoin="round" stroke-width="2.000000"
	d="
M514.500000,469.500000 
	C514.166626,471.833344 513.833313,474.166656 513.500000,476.500000 
"/>
<path fill="none" opacity="1.000000" stroke="#000000" stroke-linecap="round" stroke-linejoin="round" stroke-width="3.000000"
	d="
M548.500000,180.500000 
	C546.166687,180.500000 543.833313,180.500000 541.500000,180.500000 
"/>
<path fill="none" opacity="1.000000" stroke="#000000" stroke-linecap="round" stroke-linejoin="round" stroke-width="2.000000"
	d="
M290.500000,162.500000 
	C290.089508,163.474274 291.518829,165.061829 289.500000,165.500000 
"/>
<path fill="none" opacity="1.000000" stroke="#000000" stroke-linecap="round" stroke-linejoin="round" stroke-width="2.000000"
	d="
M480.000000,366.750000 
	C482.230408,367.724823 480.629395,369.210510 480.500000,370.500000 
"/>
<path fill="none" opacity="1.000000" stroke="#000000" stroke-linecap="round" stroke-linejoin="round" stroke-width="2.000000"
	d="
M567.000000,95.999985 
	C565.833313,96.499985 564.666687,96.999985 563.500000,97.499985 
"/>
<path fill="none" opacity="1.000000" stroke="#000000" stroke-linecap="round" stroke-linejoin="round" stroke-width="2.000000"
	d="
M514.500000,209.000000 
	C515.982910,209.838211 515.394348,211.268280 515.500000,212.500000 
"/>
<path fill="none" opacity="1.000000" stroke="#000000" stroke-linecap="round" stroke-linejoin="round" stroke-width="2.000000"
	d="
M361.500000,111.500000 
	C363.581329,113.170654 367.678558,110.809570 368.500000,115.000000 
"/>
<path fill="none" opacity="1.000000" stroke="#000000" stroke-linecap="round" stroke-linejoin="round" stroke-width="2.000000"
	d="
M639.500000,467.500000 
	C638.335449,467.670837 637.824768,469.149475 635.825073,468.332672 
	C635.090149,467.606293 633.670410,466.215546 635.000000,464.000000 
"/>
<path fill="none" opacity="1.000000" stroke="#000000" stroke-linecap="round" stroke-linejoin="round" stroke-width="2.000000"
	d="
M366.500000,116.000000 
	C368.065033,114.816910 369.846405,115.797409 371.500000,115.500000 
"/>
<path fill="none" opacity="1.000000" stroke="#000000" stroke-linecap="round" stroke-linejoin="round" stroke-width="2.000000"
	d="
M240.500000,258.500000 
	C238.817459,258.898132 236.105255,258.095032 237.000000,261.500000 
"/>
<path fill="none" opacity="1.000000" stroke="#000000" stroke-linecap="round" stroke-linejoin="round" stroke-width="2.000000"
	d="
M386.500000,282.000000 
	C387.833344,282.166656 389.166656,282.333344 390.500000,282.500000 
"/>
<path fill="none" opacity="1.000000" stroke="#000000" stroke-linecap="round" stroke-linejoin="round" stroke-width="1.000000"
	d="
M318.000000,138.000000 
	C318.333344,138.666672 318.666656,139.333328 319.000000,140.000000 
"/>
<path fill="none" opacity="1.000000" stroke="#000000" stroke-linecap="round" stroke-linejoin="round" stroke-width="2.000000"
	d="
M366.500000,136.500000 
	C364.467987,136.431564 365.354187,132.472214 362.500000,133.500000 
"/>
<path fill="none" opacity="1.000000" stroke="#000000" stroke-linecap="round" stroke-linejoin="round" stroke-width="1.000000"
	d="
M312.000000,262.000000 
	C311.666656,262.666656 311.333313,263.333344 311.000000,264.000000 
"/>
<path fill="none" opacity="1.000000" stroke="#000000" stroke-linecap="round" stroke-linejoin="round" stroke-width="2.000000"
	d="
M639.500000,224.000000 
	C634.822449,220.420258 637.181824,225.284821 636.500000,226.500000 
"/>
<path fill="none" opacity="1.000000" stroke="#000000" stroke-linecap="round" stroke-linejoin="round" stroke-width="1.000000"
	d="
M305.500000,236.500000 
	C304.785889,236.452560 304.452545,236.785889 304.500000,237.500000 
"/>
</svg>