<svg version="1.1" id="Layer_1" xmlns="http://www.w3.org/2000/svg" xmlns:xlink="http://www.w3.org/1999/xlink" x="0px" y="0px"
	 width="100%" viewBox="0 0 1024 576" enable-background="new 0 0 1024 576" xml:space="preserve">
<path fill="#000000" opacity="1.000000" stroke="none" 
	d="
M801.095764,270.736633 
	C795.029358,255.540665 784.402344,244.473633 772.164978,234.733276 
	C766.615417,230.316132 759.405518,229.034164 753.544678,225.250427 
	C741.909729,217.738953 728.449341,214.670715 715.770020,209.859253 
	C693.351318,201.351944 673.511292,187.939972 651.880005,178.020981 
	C650.669373,177.465836 649.458252,176.901245 648.294678,176.255829 
	C645.839294,174.893967 644.174194,175.420456 643.376160,178.193054 
	C641.832275,183.556717 637.944641,187.175095 634.091492,190.867981 
	C620.287109,204.098038 603.872375,213.773834 588.029846,224.129471 
	C579.220032,229.888138 569.110962,233.623657 559.775269,238.621735 
	C544.843262,246.616013 529.380859,253.343338 513.494080,259.175323 
	C492.193176,266.994812 470.942261,274.971741 448.291779,278.085571 
	C444.009460,278.674286 439.646027,278.784271 435.364716,277.801910 
	C433.810730,277.445343 432.389282,277.775024 430.969574,278.292725 
	C426.792572,279.815979 426.437317,281.650604 429.717285,284.603455 
	C431.148621,285.891998 433.251282,286.639801 433.391846,289.027893 
	C429.303223,289.234253 421.468597,284.400848 420.350433,280.407562 
	C419.538361,277.507538 418.082153,276.543762 415.294769,275.923004 
	C412.429199,275.284851 409.777710,273.654968 407.057861,272.404022 
	C405.245026,271.570282 403.265106,270.805542 403.052643,268.400299 
	C402.806824,265.617523 405.508240,265.720490 407.658600,264.284698 
	C403.637085,263.655151 400.536255,264.803497 397.565582,265.827820 
	C394.370300,266.929565 394.045105,270.432678 396.989838,273.035400 
	C400.724365,276.336151 404.860229,279.179199 408.659393,282.411865 
	C410.797821,284.231384 413.703064,285.677795 413.690460,289.046692 
	C412.070679,290.549805 411.031281,289.516724 409.994568,288.703003 
	C405.670654,285.309052 401.183380,282.095062 397.099945,278.431702 
	C393.701141,275.382538 389.867432,273.598267 385.473114,273.282227 
	C378.223938,272.760864 371.733582,276.173187 363.770721,276.970337 
	C374.935120,292.140411 394.056763,296.468353 404.501251,312.695587 
	C402.349213,312.227325 401.590424,312.288391 401.181854,311.939453 
	C394.746216,306.443115 387.033722,302.872894 380.123444,298.055634 
	C371.497009,292.042023 362.957092,285.904724 354.331909,279.889404 
	C351.969299,278.241699 348.806091,277.679260 345.951965,276.810303 
	C336.215302,273.845856 333.346436,267.318146 337.270966,257.824707 
	C339.229431,253.087311 342.665283,249.927689 346.634796,247.119446 
	C353.233551,242.451111 353.452362,240.752579 346.682709,236.615814 
	C338.656616,231.711243 330.642242,226.626450 322.897461,221.456284 
	C313.870453,215.430099 304.340790,209.806732 296.120667,202.593582 
	C290.412323,197.584534 282.520660,196.881424 276.895477,191.915222 
	C275.883606,191.021912 274.668701,191.811859 273.652405,192.401932 
	C268.878387,195.173767 265.942047,199.341736 264.338928,204.561539 
	C263.561707,207.092102 265.297882,208.511078 266.494415,210.293503 
	C268.435150,213.184494 270.121979,216.245926 272.262482,219.812759 
	C274.026123,217.162689 276.270630,215.645889 279.015442,214.498459 
	C277.463074,209.348236 271.255035,207.523132 270.418243,202.123276 
	C270.940582,201.904938 271.444244,201.615540 271.497864,201.683167 
	C277.023193,208.648422 284.439301,213.690598 290.192078,220.585724 
	C293.970764,225.114746 295.644409,230.422577 298.978149,234.919388 
	C300.662720,237.191696 301.198822,239.783432 298.609772,241.501480 
	C295.935730,243.275955 292.837677,243.247116 290.555450,240.527725 
	C286.985199,236.273560 281.659149,234.247253 277.777557,230.157089 
	C281.225006,237.729797 281.698029,246.176224 287.935638,252.733109 
	C292.244080,257.262054 294.398102,263.854095 297.454010,269.556854 
	C300.128235,274.547363 303.442444,278.941589 307.506653,282.978485 
	C312.685913,288.122925 317.139313,293.991852 322.021973,299.444275 
	C323.896820,301.537903 326.058075,303.284119 329.277618,302.872406 
	C331.288300,302.615295 332.636383,304.269348 332.816162,305.769653 
	C333.795258,313.940582 339.783752,317.774353 345.629333,322.245178 
	C350.733093,326.148651 355.745300,330.315582 358.752747,336.589600 
	C363.478638,346.448639 369.178009,355.837952 372.716125,366.267731 
	C373.006470,367.123596 373.892639,367.929138 374.703705,368.433777 
	C386.885620,376.012756 397.117584,386.208008 409.145660,394.012299 
	C413.480804,396.825104 417.798431,399.630646 422.326599,402.116882 
	C428.638580,405.582458 434.998535,408.658752 437.956421,416.273315 
	C439.044464,419.074280 442.903412,421.156891 445.923950,422.771057 
	C451.407013,425.701172 455.342163,430.487701 460.398041,433.921021 
	C465.573364,437.435425 469.216156,442.454834 471.796143,448.194427 
	C472.758728,450.335907 473.819183,452.423492 476.502106,452.433533 
	C477.991272,451.423340 477.706726,450.298889 477.162079,449.212097 
	C471.155975,437.228027 470.607361,424.805939 473.388641,411.835693 
	C476.966888,395.148682 493.825317,386.178375 509.387115,393.093719 
	C510.594727,393.630341 511.870636,394.013336 512.851074,394.371429 
	C515.002502,394.253418 513.918823,391.282562 516.300842,391.516083 
	C516.467163,391.635162 517.190979,391.906525 517.197571,392.194427 
	C517.336792,398.239136 522.539551,399.770172 526.281189,402.711304 
	C530.452393,405.990112 534.517273,409.453278 538.281860,413.185730 
	C541.702759,416.577454 544.951965,420.013885 548.972107,422.827545 
	C552.104858,425.020142 553.754089,428.957764 556.055298,432.094788 
	C565.447021,444.898010 573.452820,458.588806 578.217102,473.813507 
	C581.118591,483.085205 582.646790,492.780029 585.353516,502.122040 
	C586.724121,506.852692 589.827454,510.843842 592.625671,515.027466 
	C597.804993,522.770935 606.400879,522.326599 613.198242,525.974609 
	C614.495911,526.671021 615.945984,527.137207 616.709900,529.605347 
	C610.689819,529.764832 605.084839,525.617065 599.217529,528.956726 
	C609.434998,532.491821 618.173645,539.550232 629.475281,539.942505 
	C634.017944,540.100220 634.271057,539.637817 633.242310,535.057068 
	C631.627930,527.868774 627.854919,521.931091 623.654297,516.101135 
	C621.516785,513.134460 619.829712,509.849121 618.694092,506.340607 
	C618.206848,504.835175 617.230164,503.148895 619.475891,501.966644 
	C619.888611,502.114197 620.682251,502.197784 620.738281,502.447021 
	C622.372009,509.723389 628.929077,514.401062 630.757751,521.638550 
	C631.425537,524.281311 632.632751,526.963989 634.820312,528.984314 
	C639.378723,533.194397 639.813416,534.674683 638.487122,540.320618 
	C642.793762,540.659546 643.171753,540.252808 642.374084,536.335388 
	C640.913574,529.162598 637.638306,522.258728 637.601807,514.946716 
	C637.556396,505.839722 635.390137,499.557739 627.725464,492.807068 
	C617.607788,483.895813 610.594543,471.373810 603.307861,459.646179 
	C601.667480,457.006134 601.311707,454.019897 600.765686,451.099121 
	C600.157288,447.844788 598.685730,445.852875 595.237061,444.937592 
	C591.256287,443.881012 587.874207,442.130035 584.383606,439.140076 
	C580.157166,435.519775 573.446716,433.245453 567.026306,434.963531 
	C564.567932,435.621399 563.871460,433.897186 562.385010,433.073822 
	C558.657349,431.009064 558.065613,425.463745 553.028564,424.835052 
	C552.956604,423.307892 553.397461,421.981201 554.572510,420.718750 
	C555.178467,420.861115 555.919006,420.840332 556.411133,421.179749 
	C564.874451,427.017059 575.085693,429.079224 584.010437,433.984283 
	C587.558899,435.934509 591.864502,436.541351 595.859924,437.633179 
	C598.921143,438.469727 599.860596,435.870575 601.117798,434.011383 
	C602.993713,431.237305 602.301086,428.575836 600.228699,426.278595 
	C596.872375,422.558167 592.946716,419.460205 589.082275,416.282074 
	C585.876953,413.646088 582.931396,410.681976 579.988037,407.745697 
	C578.751465,406.512085 577.432434,405.076721 578.981262,402.053131 
	C588.706421,411.953979 600.060425,419.308960 608.692932,429.117798 
	C608.784180,432.056641 605.610229,431.381561 605.099670,433.821777 
	C608.694946,434.751770 611.647400,432.242004 616.548584,432.575775 
	C607.157593,420.011444 596.432434,410.898987 583.953674,403.251984 
	C586.864746,400.984741 588.419373,402.760315 590.125854,403.487030 
	C597.884216,406.791046 602.327148,414.032990 608.614075,419.090179 
	C611.595032,421.488159 614.401550,424.116791 617.164124,426.768982 
	C620.428162,429.902496 624.188416,431.525055 628.749390,431.786285 
	C646.007751,432.774658 663.251892,433.817261 680.548584,434.219971 
	C690.301636,434.447052 700.011108,436.533051 709.741516,437.771088 
	C710.755859,437.900146 711.510620,438.221893 712.238159,439.101471 
	C722.503845,451.512665 734.993896,459.466949 751.818481,458.691528 
	C755.468750,458.523315 759.158569,458.315430 762.777771,458.666290 
	C765.426880,458.923096 768.385071,460.112457 768.666504,463.175354 
	C768.965332,466.427979 765.688171,467.038147 763.431458,467.539062 
	C749.321777,470.670746 735.264343,474.076263 720.961121,476.278320 
	C717.034302,476.882843 713.129089,477.627838 709.012329,478.343475 
	C711.499451,479.474030 714.967651,477.406921 716.570190,481.566437 
	C709.575134,481.002319 703.226685,482.989716 696.700989,483.206665 
	C696.634521,489.936462 701.064270,491.519531 707.451233,491.461273 
	C701.924438,495.243103 698.624939,495.061157 696.302185,491.044281 
	C690.608582,481.197998 688.036865,482.229065 700.422302,479.315430 
	C675.832947,479.642670 650.871643,480.617279 626.231873,468.806732 
	C628.747925,472.596344 630.487732,475.119904 632.121399,477.710388 
	C633.273254,479.536926 635.198914,481.457062 635.193237,483.330597 
	C635.169495,491.152710 641.036133,496.281860 643.495789,502.917664 
	C643.861694,503.904846 643.935486,504.756866 643.609253,505.787262 
	C639.739563,518.008667 644.761841,528.781067 649.274414,539.600464 
	C650.067078,541.500916 651.791321,541.887817 653.891663,541.602722 
	C657.274780,541.143555 660.252991,542.595886 663.272278,543.958252 
	C662.633301,546.525513 661.203796,547.127197 658.921204,547.477356 
	C651.886353,548.556335 644.974854,547.351501 638.003357,547.036682 
	C617.116089,546.093628 598.796387,536.628662 579.750916,529.638733 
	C572.869873,527.113342 565.841736,525.171021 558.896362,522.915527 
	C550.831299,520.296448 542.848938,517.390503 534.950623,514.302307 
	C530.345886,512.501831 528.341492,507.509094 524.090271,504.909424 
	C513.179871,498.237610 502.844543,490.716644 494.943024,480.402802 
	C493.937592,479.090485 492.596497,477.684601 492.375275,476.180237 
	C491.116913,467.623352 484.620605,464.631226 477.737915,462.225220 
	C472.078827,460.247009 467.955078,457.064178 465.500122,451.382477 
	C461.744232,442.690125 455.226685,436.538635 446.981415,431.818787 
	C421.844452,417.429382 396.820770,402.886139 373.288940,385.853577 
	C357.776550,374.625580 342.203796,363.481537 326.866119,352.014313 
	C322.631836,348.848541 318.710083,345.625427 315.809235,340.794922 
	C312.904053,335.957214 306.808197,334.160370 301.912689,331.456299 
	C296.770660,328.616028 291.677368,325.871307 287.749847,321.419342 
	C282.590698,315.571320 275.996490,311.723114 269.177124,308.297363 
	C265.091949,306.245148 261.402832,303.678741 258.204681,300.568054 
	C253.545685,296.036499 247.751404,293.927673 241.775635,292.605408 
	C232.086395,290.461487 225.746017,284.515289 220.822601,276.397430 
	C218.068436,271.856293 215.075012,267.457458 212.107391,263.049652 
	C210.409332,260.527527 207.490082,259.320374 204.891647,258.911011 
	C196.304382,257.558258 192.459732,251.044586 188.782700,244.619537 
	C183.566727,235.505478 179.422363,225.912476 178.491547,215.199112 
	C178.253052,212.454041 178.922577,209.904755 179.166122,207.280823 
	C180.120728,196.996124 177.249710,187.249985 175.575867,177.292496 
	C173.489761,164.882538 170.761856,152.516769 170.821732,139.818924 
	C170.830353,137.988419 170.880493,136.136932 170.643967,134.330154 
	C169.668198,126.876801 171.108002,123.973282 177.959320,120.494919 
	C183.300079,117.783470 188.750275,115.287155 194.084625,112.563591 
	C199.424789,109.837051 203.072876,105.377838 204.359604,99.670723 
	C209.208908,78.162514 226.009003,68.838943 243.773346,60.534027 
	C254.223160,55.648693 265.317322,52.235477 276.604675,50.332882 
	C286.509216,48.663372 296.575500,47.467392 306.866699,48.575989 
	C315.122589,49.465340 323.271057,50.965523 331.508026,51.892128 
	C337.780396,52.597733 343.326508,56.334080 349.757172,56.633640 
	C350.326752,56.660172 351.116852,57.180477 351.383423,57.691242 
	C354.805817,64.248421 360.309753,62.804192 365.757996,61.479034 
	C374.299011,59.401627 382.859619,57.715546 391.158936,54.368591 
	C397.960510,51.625629 405.807648,51.592087 413.065948,49.838547 
	C425.084503,46.934978 437.037506,47.914009 449.200958,48.740868 
	C464.819397,49.802589 479.890289,53.217884 494.524658,58.051231 
	C523.148743,67.504990 548.242859,83.069893 570.011841,104.098396 
	C580.276733,114.014137 589.233154,125.876450 601.958496,132.526077 
	C612.769958,138.175613 620.684509,147.572189 631.624756,152.761658 
	C634.093933,153.932892 635.927979,156.375504 638.218872,158.001160 
	C653.679382,168.972275 670.129028,178.349564 686.428223,187.982544 
	C695.118530,193.118576 704.318604,196.422470 713.834656,199.831451 
	C735.502930,207.593781 757.766174,214.865768 777.099670,227.786667 
	C788.919434,235.686005 799.784790,245.221146 808.324829,256.922943 
	C814.460754,265.330505 822.461975,272.398743 826.135742,282.575012 
	C832.409546,299.952942 843.527222,315.074463 849.633667,332.549500 
	C850.073425,333.807861 850.864990,334.995819 850.564514,336.362091 
	C848.822571,344.281189 851.549500,351.532257 853.964172,358.789520 
	C857.048828,368.060608 856.332764,376.769104 852.682983,385.979431 
	C847.813049,398.268677 841.147095,409.537964 835.026611,421.123749 
	C829.421875,431.733154 827.152710,443.243591 825.144287,454.855377 
	C824.322876,459.604340 822.053345,463.769867 819.200378,467.335266 
	C813.926392,473.926361 809.039307,480.929291 802.025330,485.995850 
	C799.072327,488.128967 796.438599,490.728333 794.287537,493.758423 
	C793.529419,494.826263 792.608276,495.900665 791.520569,496.593903 
	C774.917175,507.175659 757.713989,516.437744 738.512268,521.588928 
	C716.658813,527.451416 694.632141,532.804077 673.609375,541.379028 
	C666.522217,544.269775 660.851807,539.287659 654.273499,538.575745 
	C657.756348,534.397766 662.737305,534.664246 667.151123,533.762085 
	C672.248718,532.720032 676.820312,531.241577 681.358887,528.288147 
	C684.547791,526.213013 689.313110,525.594116 693.374573,524.984802 
	C702.262085,523.651428 710.837097,521.231506 719.466980,518.949829 
	C724.576843,517.598816 729.704712,516.320129 734.182434,513.199524 
	C736.443481,511.623688 738.827515,512.362793 741.223083,515.262878 
	C741.684265,509.380188 734.263550,509.155701 736.871155,502.783356 
	C723.727905,514.292480 709.032837,517.061035 695.010803,521.437805 
	C691.526550,522.525330 688.112854,523.864563 684.731018,525.245544 
	C682.593628,526.118347 680.863647,525.619751 680.309265,523.559570 
	C679.595032,520.905273 681.844360,521.612488 683.412476,521.205933 
	C698.064697,517.407471 712.735229,513.567810 726.453857,507.005249 
	C731.988586,504.357574 733.141357,500.759735 730.588501,496.681732 
	C730.024048,495.780060 729.642517,494.315582 728.059448,494.843658 
	C726.639648,495.317200 726.496277,496.334290 727.077515,497.637299 
	C728.209839,500.175964 726.216614,500.716125 724.559875,501.554565 
	C713.821655,506.988922 702.276611,510.264923 690.964478,514.163574 
	C690.179993,514.433960 689.327332,514.527893 688.570129,514.852661 
	C682.665344,517.385132 676.681274,518.218262 670.198608,515.702209 
	C671.898682,511.883881 675.546326,510.356354 678.755432,508.666290 
	C684.487244,505.647675 690.385254,502.947754 695.883545,499.487854 
	C699.064087,497.486481 702.470703,496.450500 706.308105,496.687317 
	C708.990662,496.852875 711.620239,496.198334 714.036438,494.956757 
	C719.330933,492.236053 725.288025,492.067230 730.924744,490.758331 
	C735.200623,489.765442 736.934753,494.074921 739.713684,496.862183 
	C736.892578,499.757172 735.994141,502.293976 741.142883,502.981750 
	C741.029663,506.791290 750.353699,506.000458 744.818604,512.409180 
	C751.888611,511.188599 757.167969,509.680542 758.257263,501.693817 
	C758.898804,496.991119 763.139343,493.432373 766.122986,489.742432 
	C769.672668,485.352386 772.796875,480.762054 775.402100,475.835541 
	C778.692261,469.613770 782.694824,464.518036 789.739014,462.101349 
	C794.274841,460.545258 797.948792,457.301361 801.583740,454.113007 
	C806.632751,449.684326 809.152527,449.637695 814.844360,453.290833 
	C816.003235,454.034576 817.021606,454.907990 818.458496,454.116272 
	C820.288818,453.107758 819.772766,451.849701 819.009155,450.348419 
	C818.320129,448.993744 819.190857,447.805481 820.043030,446.725342 
	C822.827332,443.196075 824.406250,439.172699 825.277527,434.766205 
	C827.308594,424.494324 832.486023,415.736023 837.831421,406.845215 
	C840.218384,402.875061 842.869202,398.470581 843.723572,393.219299 
	C844.321594,389.543457 847.013428,385.874695 848.691284,382.146545 
	C852.386047,373.936584 852.061218,366.252228 848.496399,358.983978 
	C845.343506,375.522797 840.039185,391.790100 832.933472,407.504272 
	C832.229797,409.060364 831.580688,410.970490 829.434204,409.913452 
	C827.331116,408.877777 827.068054,406.728455 827.953979,404.749298 
	C834.902954,389.225433 834.091614,373.420807 829.814514,357.470520 
	C829.777283,357.331543 829.598816,357.230408 829.134033,356.739929 
	C829.648071,361.210449 830.340454,365.329437 829.296387,369.393768 
	C828.720276,371.636230 828.052185,374.214600 825.242859,374.338867 
	C822.255554,374.470978 823.101868,371.556671 822.404968,369.875153 
	C821.730591,368.248047 822.091858,366.250183 820.493469,364.667572 
	C822.014893,377.053040 823.872559,389.200897 823.206665,401.430084 
	C822.791626,409.052063 821.706604,416.729218 815.998657,422.838501 
	C814.388184,424.562195 813.534912,427.159882 812.798401,429.502594 
	C810.520325,436.748322 805.789551,442.182251 800.461792,447.302765 
	C797.529358,450.121094 794.103943,450.623871 790.329224,450.471283 
	C781.300049,450.106262 773.195435,446.594086 765.079956,443.121735 
	C764.113098,442.708069 763.460022,441.939392 763.927795,440.628754 
	C765.794067,439.297821 767.338623,440.745667 768.914917,441.427429 
	C775.649658,444.340363 782.485046,446.909393 789.744751,448.217255 
	C795.813232,449.310547 803.827942,442.657745 804.089417,436.050049 
	C798.697571,433.857239 792.511047,432.166260 792.255798,424.665924 
	C792.016418,417.631897 795.249573,413.143280 801.580566,410.185181 
	C809.105286,406.669342 811.373657,413.865448 816.263184,417.260468 
	C817.540833,412.852692 819.739197,408.743500 819.747559,404.629883 
	C819.781250,388.028687 818.802917,371.464050 814.095154,355.375549 
	C813.504517,353.357147 814.025208,351.834747 816.015015,350.377075 
	C821.062439,354.298706 822.792847,360.424194 826.042725,365.683136 
	C824.043884,356.956268 826.870361,348.515625 826.660278,339.996094 
	C826.420349,330.267273 826.133484,320.542877 824.798828,310.885193 
	C824.304626,307.309143 822.401733,304.284424 820.579102,301.348236 
	C814.265686,291.177368 807.726440,281.146637 801.095764,270.736633 
M230.251556,115.427399 
	C232.417664,112.195992 234.868256,109.332878 239.177429,108.790131 
	C234.912949,106.640717 232.478302,109.841309 229.604797,111.660629 
	C226.900528,113.372780 227.926926,114.733421 230.053986,116.696236 
	C228.960541,120.825264 231.023209,122.956253 234.790359,124.482094 
	C236.749146,119.230576 232.217133,118.304893 230.251556,115.427399 
M514.177612,487.662842 
	C516.935303,494.184357 521.608154,498.765594 528.558411,502.540588 
	C525.548401,494.556488 518.574829,491.950623 513.876953,486.304779 
	C514.075989,483.431274 514.127991,479.856018 511.370697,478.844818 
	C507.158752,477.300140 505.862915,473.787842 503.850861,470.667053 
	C498.262878,461.999939 495.110016,452.377930 493.304688,442.316711 
	C492.066986,435.418732 492.946136,428.606506 498.793701,424.174072 
	C504.567749,419.797333 511.411102,420.593658 517.085205,424.507050 
	C523.881897,429.194763 531.013672,433.746643 535.534241,441.063141 
	C537.369263,444.033112 540.961121,445.883881 541.505371,450.158417 
	C537.198975,448.540955 535.816833,443.734985 531.690979,442.546844 
	C527.599548,450.157379 528.242004,454.153839 534.437500,458.723022 
	C537.532898,461.005890 540.090698,463.024445 536.027893,466.747589 
	C535.051025,467.642761 534.328979,469.205353 534.843811,471.644623 
	C541.089172,469.915405 546.411926,474.524689 552.636536,474.573517 
	C553.747559,471.824402 550.799988,469.693146 552.316284,466.817657 
	C560.573242,477.390839 565.276001,488.715698 562.922668,502.032196 
	C561.851074,508.095947 556.947205,511.700043 550.793457,511.974274 
	C549.271179,512.042114 547.539185,511.425781 545.487488,513.705261 
	C553.505310,514.066406 560.017273,516.610352 566.213196,520.245789 
	C568.350037,521.499573 570.475708,520.492432 571.305664,517.895630 
	C572.112793,515.370300 572.294067,512.474121 573.670288,510.331940 
	C578.719910,502.472137 578.196533,493.794617 576.175232,485.710510 
	C572.832581,472.342102 567.612915,459.638885 559.905762,447.883057 
	C548.944885,431.164215 535.419800,417.004364 519.851440,404.734222 
	C512.908264,399.261963 504.857849,396.286285 495.662231,397.182800 
	C487.757782,397.953461 483.999847,401.300171 480.986511,408.558838 
	C479.836609,411.328766 482.126099,413.915375 480.190002,416.052063 
	C474.647949,422.168182 477.875366,428.569183 478.779175,435.528473 
	C481.830811,432.559570 485.228607,431.410461 486.383514,432.646088 
	C488.278381,434.673279 485.319122,435.682343 485.226257,437.287567 
	C488.524170,438.772888 491.966644,445.368225 491.334625,448.931732 
	C490.944244,451.132690 489.560791,451.266998 488.100708,450.095123 
	C485.024353,447.626099 485.000000,449.864716 484.583710,451.770966 
	C486.217072,453.492126 488.573273,450.862274 489.371094,452.743225 
	C491.253662,457.181519 495.852905,459.790680 496.567413,465.197510 
	C497.127930,469.439117 502.141937,472.352692 501.422455,477.493286 
	C501.356354,477.965271 502.851410,478.744659 503.705902,479.234070 
	C504.775665,479.846832 505.665955,480.464508 505.533966,481.893829 
	C505.279144,484.653015 507.335968,485.332153 509.324371,485.521515 
	C511.052338,485.686096 512.556030,486.166046 514.177612,487.662842 
M178.374481,137.907410 
	C176.159561,145.833023 178.587387,153.758041 178.474609,161.693314 
	C178.369034,169.120880 180.402863,176.512344 181.994843,183.646118 
	C183.239594,189.223984 185.537140,194.723816 186.263031,200.573120 
	C186.317352,201.010880 186.784683,201.397385 187.347183,202.235672 
	C191.884415,195.940704 197.746811,195.608322 204.011261,197.656677 
	C207.488739,198.793747 210.849365,200.587570 213.435287,203.097305 
	C224.639923,213.971863 235.637222,224.974350 243.728607,238.620407 
	C251.960342,252.503098 259.587158,266.626312 263.195648,282.417084 
	C264.534210,288.274628 267.413757,292.948120 271.883270,295.738586 
	C278.276947,299.730347 282.767151,305.431610 288.053619,310.417389 
	C289.855072,312.116364 291.352814,314.098999 293.137177,315.854401 
	C302.245728,324.815033 314.367432,329.567963 323.752106,338.126984 
	C328.757721,342.692230 335.497803,344.549622 340.011169,350.601105 
	C342.433167,353.848511 348.697021,355.975067 353.645111,357.913300 
	C347.791321,351.100403 339.152740,347.094788 334.101166,339.535645 
	C334.445374,339.106873 334.789581,338.678101 335.133759,338.249329 
	C343.479004,344.182983 351.824249,350.116608 360.445679,356.246613 
	C361.355591,353.326294 360.740295,351.743591 359.953186,350.298370 
	C356.788452,344.487640 353.574890,338.702454 350.291748,332.957855 
	C349.125488,330.917267 347.433929,328.307281 345.270905,328.509949 
	C340.693237,328.938782 338.379456,325.855591 335.337250,323.700195 
	C330.284454,320.120239 326.021606,315.656982 321.380035,311.618835 
	C305.230377,297.568695 293.076721,280.361572 281.628540,262.524628 
	C276.356903,254.311111 272.364502,245.264877 265.709900,237.944046 
	C264.815216,236.959808 263.588989,235.508652 264.747345,234.465561 
	C266.998535,232.438385 265.304810,230.935928 264.650848,229.177963 
	C263.302734,225.553818 261.395538,222.269440 258.986237,219.251907 
	C258.566345,218.726013 258.596375,218.005966 259.149078,217.386444 
	C260.410828,216.592133 261.950287,218.988419 263.496735,216.647522 
	C259.795715,205.655060 260.459991,194.330566 264.385742,182.762604 
	C268.771729,185.044693 272.433014,188.723831 278.408569,188.350327 
	C271.852020,181.567261 267.739929,174.073273 265.175781,165.677612 
	C264.766113,164.336258 264.479553,162.282501 262.898254,162.027878 
	C259.458466,161.473953 258.110992,158.608383 256.088013,156.526276 
	C254.765106,155.164719 252.866989,153.848038 253.526367,151.468613 
	C254.280548,148.747070 257.023651,149.956131 258.737610,149.367798 
	C257.682678,141.423782 256.615417,140.126572 251.390823,140.519943 
	C251.816772,141.329163 252.174881,142.040558 252.560883,142.736496 
	C253.411636,144.270325 255.200287,145.897339 253.058487,147.498093 
	C251.165894,148.912598 249.709549,147.361023 248.304565,146.106049 
	C247.265381,145.177811 246.396591,143.658264 243.920090,144.671524 
	C249.102707,156.921082 262.219879,164.819504 263.645325,179.058914 
	C261.607391,179.761719 260.940369,178.832047 260.339386,177.763992 
	C256.278259,170.546570 252.575745,163.116714 247.099640,156.775040 
	C242.002457,150.872162 238.828384,143.540390 233.291687,137.950928 
	C231.673325,136.317123 230.148087,133.532166 227.920013,133.903809 
	C223.689331,134.609497 222.649582,132.635590 222.011826,129.233139 
	C221.719421,127.673141 221.013794,126.049400 220.062454,124.778862 
	C216.194839,119.613693 218.026474,110.627640 222.338943,108.259254 
	C225.228836,106.672150 227.057648,104.031929 228.552475,101.256844 
	C230.541687,97.563927 232.660370,97.592949 234.826675,100.817459 
	C236.895111,103.896301 239.377121,104.082794 241.967743,102.020203 
	C248.786453,96.591316 256.648254,92.902985 263.996796,88.362923 
	C266.737518,86.669640 272.033051,86.814049 270.306641,80.991020 
	C270.167816,80.522713 271.795197,79.308586 272.780975,78.767197 
	C277.247650,76.314026 282.294739,76.174034 287.053711,75.058205 
	C298.190521,72.446960 310.521881,71.130013 318.171661,60.367836 
	C315.120300,59.101524 310.963287,58.539314 308.674835,56.171307 
	C304.597961,51.952663 299.956848,53.094429 295.316437,52.891205 
	C285.841705,52.476273 276.940277,55.474556 267.946106,57.706944 
	C262.029999,59.175339 255.708115,60.420361 250.615967,63.498917 
	C240.473679,69.630653 229.017654,73.514923 220.357391,82.339355 
	C212.957169,89.879837 211.229965,99.021057 209.081009,109.024300 
	C205.396194,110.528610 203.171173,115.509850 198.022430,116.992012 
	C192.774353,118.502785 187.771667,121.051399 183.191254,124.253906 
	C181.518692,125.423325 178.902695,126.862762 179.562546,128.476791 
	C180.807388,131.521759 179.265411,134.023102 178.985291,137.006119 
	C178.985291,137.006119 178.677353,137.255768 178.374481,137.907410 
M431.849823,250.417175 
	C430.773621,247.806320 429.798187,245.148331 428.602814,242.593216 
	C424.563507,233.959183 418.549561,226.537216 413.656494,218.427963 
	C405.140381,204.314240 396.788818,190.101288 388.299927,175.971039 
	C387.286774,174.284561 386.038055,172.634003 384.561615,171.356049 
	C382.299957,169.398392 379.665833,170.209427 377.620300,171.694504 
	C375.213562,173.441818 377.172424,175.546158 378.276459,176.864136 
	C383.322601,182.887909 386.003723,190.296295 390.463776,196.770370 
	C405.404083,218.457306 419.712799,240.651718 431.740662,264.179993 
	C432.645172,265.949280 433.748108,267.623932 434.842163,269.287750 
	C436.051819,271.127289 437.800964,271.937805 439.999573,271.561371 
	C442.196533,271.185242 443.578217,270.048492 443.833130,267.645691 
	C443.969666,266.358459 444.448944,265.071533 446.284454,264.243958 
	C449.180573,268.893585 454.971527,264.920685 458.772461,268.158142 
	C459.495056,266.496094 459.984863,264.469818 462.276947,263.876709 
	C471.541687,261.479218 479.876831,256.241516 489.732117,255.421051 
	C493.279633,255.125717 496.195343,250.759384 500.576141,253.193817 
	C500.868835,253.356476 502.003143,252.406281 502.480438,251.773407 
	C507.578857,245.012894 515.608643,243.042023 522.708984,239.734833 
	C525.733154,238.326233 529.370789,236.583771 533.258667,238.309555 
	C530.586731,240.501343 526.883118,240.733994 524.695801,243.618042 
	C525.112854,244.756531 525.549927,245.949570 526.042603,247.294617 
	C538.339905,242.846725 550.230591,238.077820 561.418701,231.221237 
	C557.063354,227.272522 553.506592,233.410797 548.606323,230.966522 
	C562.688721,222.326157 576.892456,215.562607 589.907227,206.619003 
	C586.447571,213.497101 579.186462,216.116943 574.409302,221.471283 
	C589.126709,214.050583 605.028076,208.487656 616.342834,194.205872 
	C609.509216,194.098282 609.786743,201.222122 605.196289,202.680847 
	C601.085571,203.987137 598.272034,208.627975 593.113953,208.185516 
	C592.997925,205.199066 594.909790,204.558624 596.382935,203.582596 
	C598.463257,202.204300 601.077087,201.281570 602.580933,199.442810 
	C609.553223,190.918015 619.656494,185.927017 626.672119,177.338409 
	C630.728821,172.372162 630.946655,173.446152 627.116943,168.293793 
	C620.777161,159.764542 610.449768,155.963318 604.311646,146.883301 
	C597.755127,137.184418 587.244385,130.797272 579.133484,122.170753 
	C571.429932,113.977402 562.058228,107.360649 553.506165,99.951202 
	C551.383789,98.112411 549.693604,98.605835 547.760071,100.077393 
	C540.835754,105.347122 533.065186,109.217285 525.454651,113.329163 
	C504.204010,124.810570 482.061890,134.280624 459.729370,143.477203 
	C446.523346,148.915482 432.981903,153.446579 419.739563,158.754486 
	C412.688690,161.580704 404.955872,163.511841 397.543793,165.863495 
	C391.436005,167.801300 391.158875,169.005768 394.343445,174.337112 
	C406.377747,194.483902 418.440979,214.613464 430.432495,234.785675 
	C431.576050,236.709381 433.033417,237.503784 435.206818,237.811417 
	C438.454559,238.271164 440.355682,240.131653 438.073364,243.298645 
	C436.442047,245.562332 437.158081,247.188461 438.133209,249.223816 
	C439.992004,253.103592 442.447144,256.696533 443.329773,261.056366 
	C443.847839,263.615601 443.263367,264.891022 440.495575,265.169861 
	C437.866791,260.403900 434.249237,256.218323 431.849823,250.417175 
M538.975342,93.103592 
	C534.366089,89.271240 531.078979,93.306564 527.293335,96.197815 
	C528.218933,86.776062 528.336304,86.524155 520.796875,83.010468 
	C514.094421,79.886833 506.353699,77.338150 501.058990,73.217651 
	C494.418549,68.049866 486.986389,72.276756 481.220367,67.976654 
	C480.857025,67.705681 479.917175,68.037239 479.320801,68.276321 
	C474.613800,70.163429 469.560730,70.264816 464.680115,71.243683 
	C461.534790,71.874504 458.011627,71.487289 455.323517,73.717613 
	C455.394714,75.778732 458.696991,75.189232 457.843903,78.116760 
	C430.564209,76.706390 405.658600,87.535431 379.884766,94.652260 
	C393.197601,88.013557 407.088409,83.149948 421.123718,78.498947 
	C416.107239,79.743134 410.700775,78.275269 406.003113,80.960327 
	C401.775482,83.376732 397.119446,84.664429 392.609192,86.374695 
	C384.937256,89.283867 375.876617,89.711906 370.823059,97.724892 
	C370.487091,98.257599 369.847992,98.636650 369.285583,98.982628 
	C366.613525,100.626343 365.013550,100.348000 365.709351,95.640671 
	C360.446716,99.784859 354.670685,100.013771 349.288727,101.561699 
	C347.872711,101.968964 346.102661,102.151115 345.382812,103.568565 
	C343.534790,107.207695 339.930908,108.235619 336.715485,109.920395 
	C335.361816,110.629669 333.389618,110.711578 332.963745,113.364502 
	C338.512329,114.804230 342.679291,118.674614 347.234283,121.939224 
	C358.314484,129.880569 367.429260,139.776321 375.506042,150.664703 
	C376.766022,152.363312 379.176514,154.584488 375.830048,156.447998 
	C372.867828,158.097565 371.799805,155.402786 370.555878,153.459351 
	C369.751404,152.202408 369.026154,150.873245 368.076263,149.734192 
	C357.756317,137.359375 345.779297,126.860558 332.239624,118.124420 
	C329.581238,116.409149 327.117645,114.195312 323.997101,113.529785 
	C314.256592,111.452393 304.527344,109.104607 294.667053,107.889992 
	C288.921295,107.182220 282.851288,106.961182 277.148804,109.863045 
	C273.791382,111.571556 269.775482,111.931427 266.223999,113.326225 
	C261.056213,115.355812 254.846008,111.289154 249.980652,117.640198 
	C249.998917,112.469337 247.272949,111.049950 244.238113,110.709183 
	C241.838364,110.439720 239.653122,111.870277 238.822159,114.351463 
	C237.825867,117.326347 237.826630,120.194046 240.399445,122.634254 
	C244.428925,126.456032 249.358795,128.955872 253.876877,132.057297 
	C255.188660,132.957779 256.443512,132.646942 257.280243,131.250687 
	C258.286285,129.571854 259.228210,127.854599 260.206573,126.138809 
	C257.722137,122.766129 251.195923,124.507431 250.914963,117.984436 
	C255.325104,118.433853 258.676147,122.007607 262.989929,120.644119 
	C263.560822,120.463669 264.114624,121.771317 264.032837,122.656807 
	C263.593781,127.409180 267.667938,128.914444 270.372742,128.403015 
	C275.395905,127.453262 279.256775,129.967667 283.631989,130.847900 
	C294.852020,133.105209 305.621796,136.944565 316.288849,140.903290 
	C325.498169,144.321014 333.968048,149.617798 343.943054,152.604355 
	C340.575562,147.171814 335.610962,144.174850 331.088074,140.692062 
	C327.671051,138.060822 323.946228,135.815796 321.108612,132.454224 
	C316.383179,126.856293 310.381561,123.393524 303.108612,122.358093 
	C293.874817,121.043518 284.914948,126.340141 275.557953,123.597755 
	C274.677277,123.339645 273.244720,124.100548 272.392273,124.789230 
	C270.598297,126.238571 269.295349,125.263451 267.954163,124.237114 
	C267.017303,123.520172 266.030121,122.610313 266.340942,121.341553 
	C266.833191,119.332237 268.774841,119.298416 270.352692,118.934517 
	C272.332031,118.478020 274.338501,118.601700 276.296539,119.121559 
	C280.882965,120.339256 285.250763,120.257095 289.982635,118.930344 
	C300.248260,116.052010 309.961365,117.276558 318.676208,124.310287 
	C324.488708,129.001526 328.819519,135.100433 335.127716,139.439926 
	C343.124756,144.941223 350.969330,150.885315 357.056061,158.828659 
	C361.399628,164.497116 368.159210,165.543518 374.909241,165.757416 
	C376.433441,165.805725 378.007721,165.145554 378.583740,163.587433 
	C382.037537,154.245316 391.279175,156.006485 398.192871,153.348495 
	C398.993530,153.040695 400.182037,153.511780 400.563324,155.018387 
	C398.883270,157.321426 394.204834,155.806061 393.471832,159.683960 
	C395.099976,161.354034 396.703949,160.784760 398.274475,160.241119 
	C405.627106,157.695953 412.942047,155.037964 420.326721,152.589951 
	C447.068939,143.724976 473.181213,133.216812 498.621033,121.192551 
	C513.185669,114.308517 527.538391,106.837234 541.265259,98.301788 
	C543.139465,97.136391 545.615234,96.149055 544.136353,92.943764 
	C542.527344,93.067535 541.077209,93.179092 538.975342,93.103592 
M367.130310,175.503296 
	C372.836182,182.742081 376.943604,190.835831 380.306549,199.369553 
	C376.934662,198.098160 375.590302,195.277252 374.213196,192.517853 
	C369.437866,182.949127 363.713898,174.442459 352.533173,171.352600 
	C350.012543,170.656006 347.548615,169.328415 345.396790,167.811539 
	C340.879608,164.627289 335.225067,163.292557 331.154297,159.714798 
	C332.075195,157.167709 334.309601,159.429169 335.326630,157.286819 
	C329.934509,154.926300 324.563202,152.591019 319.204956,150.226089 
	C305.105225,144.002975 290.992462,137.722900 275.729095,134.944061 
	C271.857361,134.239182 267.395660,133.172394 263.296661,136.094070 
	C266.220520,140.052628 267.563141,144.087265 268.605804,148.332428 
	C272.591278,164.558960 282.292877,177.131363 295.313690,186.923370 
	C308.812622,197.074982 322.113037,207.479416 336.541077,216.485352 
	C343.960327,221.116425 352.146240,224.267181 359.196899,229.430832 
	C361.246796,230.932098 363.197968,230.632294 365.601532,229.268143 
	C373.644806,224.703094 382.887115,225.332855 392.980865,223.072632 
	C386.900391,230.023605 378.156830,229.025894 372.525177,234.315674 
	C376.124756,237.173294 380.276611,238.927231 382.081451,243.272324 
	C380.323517,243.842743 379.065247,243.070099 378.156128,242.316864 
	C372.766968,237.851715 368.074615,240.006027 362.619293,242.748856 
	C355.887421,246.133484 350.751465,251.289963 345.049011,255.846497 
	C342.933075,257.537231 342.667206,259.898560 343.516052,262.186707 
	C344.417542,264.616821 346.815491,265.121887 348.976868,264.599335 
	C356.586914,262.759277 364.520752,263.598663 372.116547,261.493408 
	C375.929596,260.436615 379.686859,260.212463 383.198120,263.617523 
	C386.742432,267.054596 391.608765,265.758881 393.552826,261.359436 
	C394.551971,259.098328 396.385834,258.716370 398.273315,258.238983 
	C400.907043,257.572845 403.543762,258.441193 406.149902,258.475861 
	C413.943237,258.579590 414.412231,258.913116 412.347137,266.211792 
	C414.757629,266.606750 417.129852,266.995453 419.488251,267.381866 
	C420.974426,260.287079 420.931732,259.029999 419.443726,256.992340 
	C414.285919,249.929260 406.022858,246.066605 401.181274,238.429642 
	C398.039581,233.473969 392.218170,230.144547 394.567505,222.902084 
	C394.890686,221.905853 394.588776,220.512863 394.143585,219.492279 
	C390.752533,211.718765 387.220428,204.023605 384.061279,196.131088 
	C381.389221,189.455490 376.488647,183.653076 372.434540,177.557205 
	C370.319061,174.376358 367.778137,171.603851 362.901337,171.955750 
	C364.384918,173.169617 365.518311,174.096939 367.130310,175.503296 
M651.684265,441.712494 
	C645.963318,439.591156 640.159668,440.273010 634.325073,440.970886 
	C645.562439,446.972015 659.165283,443.365326 670.702515,450.420715 
	C667.480835,451.866913 664.900879,451.779541 662.400696,450.112640 
	C660.846680,449.076569 659.056580,447.760101 657.353149,448.353271 
	C647.985718,451.615265 639.427063,445.530548 630.309692,446.230682 
	C629.119080,446.322144 627.717590,444.981506 626.905396,446.860901 
	C626.165283,448.573517 627.810608,449.091675 628.579712,450.074921 
	C630.074158,451.985565 633.487366,451.317932 634.242615,453.797363 
	C636.134827,460.009552 641.589783,461.478058 646.591614,462.501953 
	C662.548828,465.768616 678.685242,465.631134 694.811218,463.505402 
	C687.684570,462.378082 673.148987,455.664703 672.210815,452.824982 
	C676.000977,452.623138 679.479919,453.287781 682.654358,455.238037 
	C686.971924,457.890656 691.525818,459.743134 696.684692,459.714264 
	C697.808777,459.707977 699.271851,460.074890 699.681946,458.616730 
	C701.119019,453.507324 704.460938,456.080780 706.087646,457.647247 
	C708.341919,459.817932 710.144653,461.600250 713.521790,460.758301 
	C716.341675,460.055237 719.430237,460.216400 722.349609,457.718201 
	C715.741394,453.811584 709.534180,450.142029 703.450745,446.545654 
	C697.939270,451.111328 691.678467,450.280640 687.638367,444.627716 
	C686.822998,443.486969 685.729004,443.547882 684.709290,443.098450 
	C681.959167,441.886505 679.089294,442.708435 676.359558,442.686493 
	C668.390320,442.622467 660.493164,440.912384 651.684265,441.712494 
M333.797150,68.228928 
	C337.210114,69.332230 340.713623,70.274315 342.570740,73.464035 
	C346.431885,72.587929 347.763367,70.503586 348.072998,66.913887 
	C348.214905,65.268753 349.873932,63.689095 348.111023,62.090118 
	C346.500244,60.629116 344.790253,61.060070 342.661255,61.431076 
	C338.624878,62.134468 335.440094,64.985031 331.661377,65.534332 
	C323.292145,66.750931 315.610138,69.739899 308.612823,74.101440 
	C301.663696,78.432915 294.065460,81.954941 286.823242,84.975388 
	C276.176636,89.415642 265.523987,93.916428 255.065430,98.814789 
	C252.370911,100.076805 249.503433,101.582741 247.287292,104.636826 
	C253.887497,108.209778 260.710968,107.276627 267.226318,107.009140 
	C275.273743,106.678757 281.697327,101.571327 288.672089,98.179573 
	C291.320648,96.891609 294.658142,95.999855 296.289856,93.864166 
	C299.242645,89.999306 303.005188,88.295990 307.306946,86.754501 
	C314.328552,84.238380 320.920319,80.854164 325.804840,75.039436 
	C325.044159,73.060463 322.438751,73.901512 321.845642,71.561226 
	C324.183197,66.583107 328.945374,68.381607 333.797150,68.228928 
M391.076447,73.623962 
	C396.014252,72.370224 396.765747,68.023315 398.826874,64.017448 
	C391.840454,63.674908 386.018555,66.003960 380.187683,67.542793 
	C368.189758,70.709190 356.887726,75.735413 346.786896,83.150970 
	C344.300812,84.976158 341.817871,86.895790 338.400726,85.893211 
	C338.220917,81.815643 344.413391,82.831497 344.004120,78.544937 
	C337.021698,80.270576 334.167480,82.841301 333.918152,88.330559 
	C319.450684,86.351639 312.762543,100.616425 300.443512,104.288857 
	C304.547363,107.399162 309.283600,107.186592 313.701691,107.580048 
	C316.751282,107.851624 320.405060,109.634377 322.946106,107.510048 
	C327.396179,103.789795 333.280304,102.169044 337.536377,97.127434 
	C330.048859,99.134506 323.588654,104.417114 315.837067,100.833527 
	C325.886902,100.470848 333.635345,94.897728 341.589966,89.886017 
	C346.547668,86.762489 351.577454,83.333588 357.521545,83.256226 
	C364.888062,83.160339 371.547791,81.046227 378.197632,78.359650 
	C382.200623,76.742432 386.284698,75.325851 391.076447,73.623962 
M814.046814,459.270386 
	C806.371521,462.418030 800.894775,469.725159 792.648926,471.442993 
	C790.950500,469.276764 792.681458,467.230835 791.370911,465.677704 
	C784.860779,467.042480 782.244080,469.584534 781.692322,475.056641 
	C783.528992,474.512024 784.651062,471.988983 787.114868,472.806519 
	C786.337952,476.842896 781.150452,477.166473 780.845215,480.954346 
	C780.650940,483.366150 779.666382,484.009735 777.568970,484.380066 
	C775.173767,484.802948 772.187256,486.394958 772.974487,488.681702 
	C774.575012,493.331116 771.234192,494.246368 768.879639,496.347992 
	C765.426819,499.429779 761.152588,502.332520 763.426880,508.189880 
	C774.826721,502.374115 786.331604,496.922424 795.148438,487.822815 
	C794.722107,485.014252 791.855164,483.814514 792.515076,480.833374 
	C793.226868,481.133423 793.986145,481.209991 794.302795,481.624634 
	C797.394653,485.673645 800.114807,484.014252 802.806702,481.170441 
	C808.736450,474.906067 814.334412,468.388031 819.360657,459.803284 
	C816.778381,460.939026 817.224121,456.523346 814.046814,459.270386 
M542.812988,484.177277 
	C539.385437,486.486633 540.697571,489.093781 542.044495,491.999329 
	C543.354004,494.824158 546.750122,496.565216 546.687500,500.812134 
	C537.547974,496.428406 533.092651,489.384857 532.093079,480.190063 
	C531.701721,476.589935 530.825317,474.602814 526.740967,475.227509 
	C527.461426,478.529236 526.443237,481.463501 524.288391,483.577209 
	C521.733154,486.083618 522.531616,487.809967 524.652893,489.759064 
	C528.566162,493.354858 532.099792,497.516907 536.470459,500.421814 
	C541.562622,503.806274 547.276367,508.546417 553.772949,504.255035 
	C560.222717,499.994537 558.257263,493.126038 557.195984,486.897217 
	C556.871521,484.992767 556.779907,482.273834 554.094788,482.590149 
	C550.505615,483.013000 546.368896,478.367401 542.812988,484.177277 
M507.917053,466.595734 
	C509.285248,468.404419 509.678253,470.938812 511.834229,472.051422 
	C519.415222,469.136230 524.734558,464.419952 526.126282,454.863251 
	C522.734497,458.341583 518.807861,457.315063 515.832764,459.238770 
	C511.876007,452.025299 504.767029,447.936493 500.782196,441.037903 
	C499.496002,450.467804 503.434509,458.249542 507.917053,466.595734 
M509.275452,442.203552 
	C511.233398,445.905151 514.829773,447.603088 518.179443,449.664307 
	C519.243774,450.319244 519.831787,451.969604 521.416565,451.420380 
	C523.003784,450.870270 522.804688,449.285126 522.813965,448.000671 
	C522.841675,444.177307 522.722900,440.367920 524.306458,436.729095 
	C524.969727,435.204926 524.523743,433.433868 523.050171,432.815979 
	C518.173218,430.770813 513.580811,427.804871 508.168488,427.332428 
	C504.604431,427.021332 503.104156,429.307404 504.553223,432.644806 
	C505.872284,435.682678 507.432404,438.615906 509.275452,442.203552 
M836.633057,365.475464 
	C836.471130,367.525208 834.476807,369.745178 837.494873,371.840302 
	C841.203369,349.831329 840.706909,328.385101 833.989563,306.056610 
	C831.915283,309.679169 832.655212,312.034729 833.298096,314.625885 
	C835.405640,323.120941 837.927124,331.754547 835.057007,340.479523 
	C832.286133,348.903107 835.609436,356.723114 836.633057,365.475464 
M802.984680,262.585846 
	C805.251709,265.861603 806.762146,269.515381 808.533203,273.052216 
	C812.419312,280.812653 817.262817,288.093658 821.715393,295.570404 
	C822.236938,288.485870 821.962830,281.871155 817.613159,276.101868 
	C811.394348,267.853607 804.239197,260.350647 798.470459,251.737534 
	C797.128235,249.733459 794.795532,248.551163 791.301208,247.298462 
	C795.563232,252.854584 799.067139,257.422363 802.984680,262.585846 
M245.951157,252.533447 
	C243.051056,247.604630 240.150955,242.675797 237.082016,237.460037 
	C233.977341,242.137619 233.673386,244.561600 235.617035,246.204941 
	C240.438934,250.281784 240.768494,252.160416 237.346481,258.014282 
	C240.770691,259.794281 244.478394,261.129181 247.484375,263.631744 
	C248.105225,264.148590 249.054688,264.253143 249.756439,263.546997 
	C250.593674,262.704498 250.379807,261.825531 249.888702,260.832367 
	C248.640717,258.308441 247.499649,255.731689 245.951157,252.533447 
M401.089844,70.156303 
	C409.266846,66.928375 418.883453,70.224495 426.542053,64.560059 
	C426.835449,64.343048 427.576324,64.429657 427.938232,64.652100 
	C432.908081,67.706757 434.969604,64.769226 436.766144,60.676609 
	C434.696503,59.754574 432.863190,60.154835 431.064514,60.265308 
	C423.086151,60.755329 415.489105,63.467651 407.533112,64.328064 
	C404.831848,64.620193 401.972443,67.061493 401.089844,70.156303 
M229.573120,247.622620 
	C227.401596,244.432175 223.331940,244.234924 220.591080,241.906281 
	C216.016983,238.020111 213.984695,232.721375 212.286621,227.191010 
	C211.843140,236.965637 214.687820,245.752838 219.432129,254.157135 
	C223.529083,252.886475 227.874939,252.864883 229.573120,247.622620 
M226.431152,226.059479 
	C223.404984,223.801651 220.495010,221.316345 216.468338,220.762009 
	C217.291779,228.964432 220.247894,235.714645 227.603592,240.541611 
	C228.943405,235.483170 233.103577,230.831818 226.431152,226.059479 
M631.188599,463.177155 
	C624.080566,455.996979 616.257385,450.033112 605.820923,448.155853 
	C604.812012,451.401398 609.038147,452.804596 607.960266,456.297577 
	C611.217285,452.134644 614.321106,453.349121 615.771118,456.632965 
	C619.395325,464.841309 628.268250,462.108490 633.837585,467.069397 
	C633.882446,464.590027 632.664001,464.170563 631.188599,463.177155 
M242.168625,270.889893 
	C241.859558,271.459167 241.262756,272.040680 241.286362,272.595795 
	C241.501205,277.644012 245.247574,281.177277 247.086365,285.547882 
	C247.673386,286.943207 249.720764,286.598114 251.049469,285.534851 
	C253.100876,283.893188 254.595886,276.549530 252.800507,274.363983 
	C250.316208,271.339783 247.341415,268.510315 242.168625,270.889893 
M216.111542,213.048157 
	C213.684433,210.769775 212.058945,207.471085 208.449860,206.659866 
	C203.320358,214.374954 202.501877,227.291092 206.943619,233.375153 
	C206.097366,224.657578 207.394165,217.274673 216.111542,213.048157 
M406.236786,59.014740 
	C410.428833,61.004650 414.659607,59.458817 418.392120,58.180401 
	C427.002686,55.231239 435.898010,56.458988 445.539429,55.602856 
	C431.985260,52.133820 419.574921,54.361332 407.196320,56.857620 
	C406.621216,56.973591 403.613068,56.258987 406.236786,59.014740 
M234.143295,264.960968 
	C234.364410,263.426483 235.521271,261.744751 233.491226,260.544739 
	C229.583344,263.152161 227.233154,265.911499 227.424423,267.648010 
	C227.780518,270.881042 236.803604,280.111115 241.051605,280.987457 
	C238.427322,275.719086 233.501129,271.862640 234.143295,264.960968 
M683.500305,470.272675 
	C676.844849,470.272675 670.189392,470.272675 663.533936,470.272675 
	C663.553650,470.753326 663.573364,471.233948 663.593079,471.714600 
	C682.404663,472.162048 701.191101,472.093048 719.798035,468.535614 
	C714.006042,468.719727 708.260254,469.589722 702.482727,469.945740 
	C696.504578,470.314087 690.495667,470.183685 683.500305,470.272675 
M706.233276,503.682037 
	C710.947021,501.783173 715.660767,499.884338 721.483032,497.538940 
	C699.908813,501.053070 694.774719,502.951630 686.163025,510.566925 
	C692.944763,508.259766 699.233887,506.120178 706.233276,503.682037 
M619.640076,470.822693 
	C618.672791,470.544708 617.621338,470.875519 618.211182,471.878845 
	C621.587952,477.622437 624.999146,483.378082 630.830261,488.890106 
	C630.635681,479.747101 627.386780,474.159607 619.640076,470.822693 
M195.557800,210.187729 
	C200.260605,208.646072 198.036057,205.122711 198.290527,202.071899 
	C191.195740,203.836105 188.424149,210.468246 191.637070,217.204498 
	C195.080200,216.181671 192.726089,212.230347 195.557800,210.187729 
M807.543335,459.210999 
	C808.681763,458.193542 810.703613,457.985535 810.688721,455.883026 
	C806.067017,453.619049 797.885071,459.778412 795.856201,467.517090 
	C799.854370,464.678711 803.422546,462.145538 807.543335,459.210999 
M445.528809,69.808968 
	C451.657349,67.060188 458.752014,68.101013 466.266815,65.158577 
	C458.688477,63.875618 443.193085,66.951271 439.619141,69.913330 
	C441.348694,71.417519 443.065277,70.169701 445.528809,69.808968 
M390.368469,393.157806 
	C391.586792,393.731842 392.722534,395.418121 394.148926,393.469513 
	C390.561249,387.141357 382.974091,382.506317 377.571991,383.560059 
	C380.142578,388.821747 387.620728,387.432861 390.368469,393.157806 
M365.098236,89.942299 
	C360.844940,91.898232 356.591675,93.854164 352.338379,95.810097 
	C358.472931,95.140266 364.582458,94.697128 369.978851,91.314308 
	C368.671478,89.393730 367.254364,89.395767 365.098236,89.942299 
M199.554535,244.147064 
	C198.485672,239.737961 196.922928,235.621460 191.980316,232.130356 
	C193.953766,236.900925 195.431671,240.692627 197.124054,244.386063 
	C197.476868,245.156067 198.347672,247.554916 199.554535,244.147064 
M222.634277,120.719894 
	C226.316437,124.721519 226.316437,124.721519 230.443146,125.758873 
	C224.146805,122.298538 223.966431,117.264198 224.849869,110.868980 
	C221.068420,114.450760 221.065582,117.142792 222.634277,120.719894 
M844.197205,348.215485 
	C844.564575,350.904358 842.767334,353.535004 844.088379,356.237823 
	C845.100952,347.829498 845.221313,339.427216 843.789795,331.051331 
	C844.120789,336.451477 844.575806,341.854523 844.197205,348.215485 
M521.260315,249.506271 
	C522.881287,247.893677 521.649719,246.236160 520.419067,246.190781 
	C517.376831,246.078644 515.826233,248.393204 514.447388,251.184570 
	C517.134521,252.042603 518.762512,250.215790 521.260315,249.506271 
M380.882446,86.212639 
	C382.342224,85.418808 384.350739,85.345299 385.277100,82.770294 
	C381.660339,83.246689 378.978546,84.119629 377.521393,87.341003 
	C378.449951,87.058876 379.378510,86.776756 380.882446,86.212639 
z"/>
<path fill="#000000" opacity="1.000000" stroke="none" 
	d="
M599.585449,351.420990 
	C589.440491,346.181854 579.839905,340.630249 569.569336,336.483643 
	C563.549622,334.053253 556.840393,333.557068 551.172241,330.026978 
	C549.222656,328.812775 546.819092,328.124023 547.316406,324.949585 
	C545.210693,325.541534 543.497986,326.136536 541.737000,326.494293 
	C538.090820,327.235016 535.866394,325.176270 537.409912,322.035217 
	C539.448608,317.886719 537.467896,316.271942 534.222656,314.769897 
	C532.385559,313.919617 529.891541,313.722839 529.588196,309.974274 
	C535.181030,311.318848 540.767029,311.566956 545.601074,314.157257 
	C557.873962,320.733765 570.061951,327.487579 582.068909,334.536713 
	C596.506775,343.013031 611.872314,349.716522 626.303223,358.218781 
	C633.057007,362.197876 638.058960,367.611633 642.827271,373.650116 
	C639.263428,374.527283 639.464661,374.256805 629.370483,366.745483 
	C624.912903,363.428528 619.984985,360.190582 614.490295,358.868622 
	C608.961975,357.538574 604.647095,354.236847 599.585449,351.420990 
z"/>
<path fill="#000000" opacity="1.000000" stroke="none" 
	d="
M488.918518,313.737610 
	C497.845123,311.545563 506.301849,308.918365 515.267090,309.869781 
	C518.617371,310.225281 522.335388,309.707306 522.581421,315.084320 
	C522.687439,317.402313 525.909058,317.997528 527.891052,319.137115 
	C529.329041,319.963898 531.214722,320.755554 530.241333,322.819244 
	C529.390381,324.623322 527.446533,324.113251 526.344482,323.210876 
	C522.271240,319.875793 518.457764,322.389374 514.411621,323.194153 
	C503.534088,325.357849 492.452820,326.874115 482.184082,331.178955 
	C474.578491,334.367371 467.103607,337.626465 458.799927,338.372284 
	C457.455322,338.493073 457.349945,340.832581 455.015076,339.823822 
	C456.379669,336.169739 456.667816,331.475098 459.921631,329.282959 
	C464.516022,326.187683 467.989044,321.672211 474.058014,320.131073 
	C478.954926,318.887512 483.303741,315.120392 488.918518,313.737610 
M489.720673,318.856415 
	C488.657898,319.661896 486.945190,319.578461 486.155273,321.434814 
	C493.885773,321.141327 500.836823,319.252655 507.533203,316.252014 
	C501.386383,314.183868 496.040192,317.518951 489.720673,318.856415 
z"/>
<path fill="#000000" opacity="1.000000" stroke="none" 
	d="
M606.263855,320.953491 
	C608.179626,318.406799 610.178284,321.009857 612.046814,320.357758 
	C613.801575,318.459778 614.342468,316.061768 614.995300,313.637329 
	C616.800354,306.933777 623.349121,305.227936 628.563904,309.859924 
	C631.957031,312.873840 633.265564,317.336823 636.553711,320.515015 
	C638.376099,322.276520 637.338745,325.283447 634.487488,325.951172 
	C630.684082,326.841827 629.640381,329.197784 629.098022,332.694977 
	C628.000549,339.771332 625.133057,341.952820 618.114441,340.927246 
	C614.126160,340.344452 609.891602,341.818787 606.107300,338.898865 
	C602.077698,335.789612 600.906494,332.925720 603.706177,328.747986 
	C605.302490,326.365906 605.551086,323.835693 606.263855,320.953491 
M618.392212,332.008270 
	C616.745117,332.409210 614.599121,332.918610 615.942688,335.080200 
	C617.016052,336.806976 619.308716,336.967133 621.353210,336.289551 
	C622.661011,335.856140 624.023193,335.193634 623.563354,333.546661 
	C622.897583,331.162048 620.945007,331.488403 618.392212,332.008270 
M621.258301,319.514893 
	C619.124695,319.320892 618.181152,320.453369 618.178589,322.436035 
	C618.176941,323.767242 618.923218,324.648468 620.304199,324.696381 
	C622.031494,324.756317 623.783081,324.422821 624.423340,322.613525 
	C625.156128,320.542480 623.297607,320.229248 621.258301,319.514893 
z"/>
<path fill="#000000" opacity="1.000000" stroke="none" 
	d="
M703.652222,249.317978 
	C710.721985,246.595291 714.839600,248.252731 717.725159,254.610748 
	C718.261841,255.793228 718.456177,257.061279 719.521973,258.087982 
	C723.377014,261.801544 723.182068,263.117859 718.697510,265.574982 
	C715.856995,267.131287 714.143311,269.293976 714.259766,272.742065 
	C714.414917,277.333130 712.048340,279.417755 707.482849,279.304504 
	C704.830261,279.238678 702.241028,279.511261 699.657654,280.486237 
	C696.594727,281.642212 693.731445,280.738190 691.530457,278.251221 
	C689.330383,275.765320 688.546570,273.109039 690.756287,270.136353 
	C691.581116,269.026855 691.815674,267.682922 691.438049,266.322754 
	C690.257629,262.070984 692.332703,260.099884 696.245544,260.410217 
	C699.446960,260.664124 700.103882,258.778412 700.288086,256.615021 
	C700.524780,253.834473 701.194580,251.416138 703.652222,249.317978 
M704.928223,263.964783 
	C706.711243,264.989105 708.392090,264.952240 709.832336,263.371338 
	C710.671509,262.450256 710.931885,261.284882 710.407898,260.154572 
	C709.767456,258.772980 708.295288,258.351624 707.058044,258.551147 
	C704.179749,259.015289 703.444031,260.911469 704.928223,263.964783 
z"/>
<path fill="#000000" opacity="1.000000" stroke="none" 
	d="
M71.955658,509.672577 
	C70.896858,511.647217 71.851059,512.766052 72.764191,514.022400 
	C75.349411,517.579407 73.869484,520.661682 71.252480,523.334595 
	C69.242172,525.387817 61.778656,526.065247 59.890514,524.631653 
	C58.658062,523.695801 58.675911,522.331177 58.670082,521.017883 
	C58.647999,516.043457 58.952988,511.049469 58.605774,506.099976 
	C58.296398,501.689819 60.246838,500.063660 64.273087,500.056152 
	C69.314011,500.046783 72.788200,502.586945 72.856010,506.465790 
	C72.872643,507.417450 72.375603,508.378113 71.955658,509.672577 
M63.132187,514.319031 
	C62.585171,517.125793 60.336708,520.567139 65.081291,521.727478 
	C67.176125,522.239746 69.111511,520.782593 69.246544,518.495117 
	C69.468315,514.738220 66.900139,513.859131 63.132187,514.319031 
M66.778839,504.340942 
	C64.876610,503.880341 63.002953,503.658691 62.480961,506.193451 
	C62.218685,507.467010 62.045906,508.928802 63.413914,509.804810 
	C64.720718,510.641632 66.104523,510.214752 67.123260,509.353760 
	C68.726715,507.998596 69.151939,506.340820 66.778839,504.340942 
z"/>
<path fill="#000000" opacity="1.000000" stroke="none" 
	d="
M236.278351,504.359192 
	C230.353317,511.255615 230.351410,511.256989 235.435242,518.396851 
	C236.109909,519.344421 236.879852,520.229919 237.491135,521.215210 
	C238.195602,522.350769 239.020706,523.726624 237.514084,524.716919 
	C236.154434,525.610596 234.875290,524.697632 234.068314,523.600464 
	C232.031616,520.831360 230.133835,517.960083 227.943161,514.786072 
	C225.813309,517.299561 226.637848,519.901489 226.300476,522.234070 
	C226.127655,523.428711 225.944138,524.681519 224.443115,524.748840 
	C222.983566,524.814209 222.335251,523.654785 222.315399,522.454102 
	C222.208328,515.973145 222.181854,509.490051 222.214569,503.008148 
	C222.220688,501.796417 222.800583,500.659576 224.262863,500.624725 
	C226.134460,500.580109 226.220932,502.008575 226.359055,503.380829 
	C226.520172,504.981506 225.989120,506.712463 227.449020,508.508453 
	C229.423874,506.180603 231.304565,503.927368 233.228271,501.711517 
	C234.190948,500.602722 235.559418,500.040924 236.805969,500.791870 
	C238.610367,501.878815 237.130417,503.026276 236.278351,504.359192 
z"/>
<path fill="#000000" opacity="1.000000" stroke="none" 
	d="
M144.464096,517.718628 
	C143.739334,520.305298 145.583954,524.479858 142.514313,524.397339 
	C138.703918,524.294983 140.790024,520.107666 140.757446,517.845276 
	C140.697769,513.702393 139.809341,509.590332 140.491150,505.400085 
	C141.279266,500.556488 143.079712,499.367462 148.896240,500.437622 
	C153.756607,501.331909 156.889450,505.073059 154.805939,508.730804 
	C152.535538,512.716553 153.453949,515.787048 155.039566,519.301025 
	C155.497879,520.316772 155.630356,521.541931 155.648773,522.675293 
	C155.665405,523.696960 155.180557,524.661560 153.982513,524.827026 
	C152.795395,524.991089 152.117996,524.246643 151.778503,523.229431 
	C151.146805,521.336792 150.875687,519.260315 149.930115,517.550293 
	C148.442291,514.859680 146.474960,513.712463 144.464096,517.718628 
M147.840988,511.368042 
	C149.917862,510.418518 151.661682,509.098755 150.967926,506.533539 
	C150.450317,504.619598 148.843475,503.605316 146.833725,503.725006 
	C145.288589,503.816986 144.514969,505.009979 144.487030,506.425446 
	C144.445145,508.546692 143.381424,511.345367 147.840988,511.368042 
z"/>
<path fill="#000000" opacity="1.000000" stroke="none" 
	d="
M470.488190,362.590912 
	C461.309662,356.597534 452.438812,350.795929 443.515350,345.076477 
	C441.391632,343.715271 439.762024,341.954590 437.338745,338.878357 
	C444.951355,341.073578 449.934784,345.444977 455.465454,348.648773 
	C461.046112,351.881561 466.296783,355.684052 471.583771,359.165649 
	C474.672668,359.088287 473.569427,356.113098 474.745544,354.784363 
	C476.931030,354.777008 477.940613,356.250092 478.055878,357.885773 
	C478.214417,360.135162 479.492798,361.478943 480.846466,362.950714 
	C481.824829,364.014435 483.227814,365.212372 481.769653,366.766479 
	C480.558228,368.057678 478.967621,367.632263 477.616028,366.882172 
	C475.297516,365.595428 473.052490,364.176331 470.488190,362.590912 
z"/>
<path fill="#000000" opacity="1.000000" stroke="none" 
	d="
M126.978355,509.971375 
	C126.611130,512.472900 128.978210,515.915039 124.779037,517.100952 
	C122.272247,517.808899 119.485229,516.608337 116.718231,518.025452 
	C117.250870,524.047913 123.270401,520.620544 125.869125,522.976501 
	C122.770264,526.065918 117.811005,526.182007 114.798401,523.469604 
	C111.310211,520.329041 110.967804,513.742432 114.085190,509.748901 
	C116.970230,506.053009 121.211754,506.017303 126.693970,509.819489 
	C126.994888,509.993652 126.978355,509.971375 126.978355,509.971375 
M122.384674,511.863861 
	C120.058105,509.210541 118.507828,510.239563 116.446404,512.844971 
	C119.101074,513.826111 120.882812,514.591431 122.384674,511.863861 
z"/>
<path fill="#000000" opacity="1.000000" stroke="none" 
	d="
M192.072922,524.413330 
	C187.621902,520.095947 186.723206,515.739014 189.017899,511.150146 
	C191.036240,507.113983 196.629623,505.485840 200.108688,508.061310 
	C202.393768,509.752808 203.679230,512.165405 203.044617,515.034302 
	C202.374863,518.062073 199.669205,517.023743 197.660294,517.244568 
	C196.056656,517.420776 194.339767,516.933533 192.641037,518.130005 
	C193.395554,523.838135 198.955490,520.767639 202.184540,523.376831 
	C198.906113,526.232666 195.679962,525.481140 192.072922,524.413330 
M195.129562,513.707581 
	C196.355301,513.611328 197.914932,514.143127 198.358047,512.386414 
	C198.583344,511.493317 197.822632,510.866058 197.042084,510.576233 
	C195.908951,510.155579 194.766632,510.281586 193.867554,511.161072 
	C192.703033,512.300232 193.040314,513.132324 195.129562,513.707581 
z"/>
<path fill="#000000" opacity="1.000000" stroke="none" 
	d="
M91.679031,518.443970 
	C89.324287,524.717957 85.046585,526.919006 80.075638,524.746765 
	C75.865387,522.906982 73.923958,516.536316 76.137489,511.824280 
	C78.235237,507.358704 82.988441,505.581177 87.406860,507.840576 
	C91.594963,509.982147 92.107208,513.886108 91.679031,518.443970 
M81.584122,511.111694 
	C79.002655,513.182129 78.822372,515.961365 79.728462,518.759155 
	C80.639725,521.572876 82.828522,522.850281 85.532104,521.226929 
	C88.170227,519.642883 88.189896,516.752380 87.576706,514.107239 
	C86.952194,511.413269 85.414886,509.598724 81.584122,511.111694 
z"/>
<path fill="#000000" opacity="1.000000" stroke="none" 
	d="
M163.956909,506.827209 
	C168.610672,507.258911 170.442520,509.709747 170.374695,513.856506 
	C170.318268,517.306580 170.363129,520.758301 170.363129,524.647217 
	C165.574524,524.266052 160.062515,528.030273 157.709732,521.942627 
	C155.046707,515.052185 161.865234,514.463440 165.979492,512.634827 
	C164.705780,508.395203 160.781509,512.199646 159.031372,509.499481 
	C159.508591,507.016418 161.696198,507.174286 163.956909,506.827209 
M165.867935,520.522156 
	C166.576050,519.026489 166.947678,517.512939 164.631393,517.387146 
	C163.027756,517.299988 161.518784,518.305603 161.783295,519.984802 
	C162.147614,522.297668 163.824661,522.056213 165.867935,520.522156 
z"/>
<path fill="#000000" opacity="1.000000" stroke="none" 
	d="
M42.336525,516.343140 
	C44.409142,513.613953 47.794849,514.326416 50.019806,512.658508 
	C48.869934,508.500702 45.126125,511.718567 43.057232,509.770660 
	C43.736137,506.427032 46.507607,506.818420 48.766205,506.973419 
	C51.734966,507.177185 53.794544,509.079926 54.143166,512.001221 
	C54.630806,516.087463 54.883339,520.241211 53.891159,524.278259 
	C42.751347,526.439270 39.957489,524.597961 42.336525,516.343140 
M49.586155,517.528870 
	C47.517590,516.934387 45.906628,517.360657 45.569065,519.726318 
	C45.410767,520.835693 46.292904,521.654053 47.385189,521.646362 
	C49.800732,521.629456 50.438931,520.147888 49.586155,517.528870 
z"/>
<path fill="#000000" opacity="1.000000" stroke="none" 
	d="
M36.622429,503.970276 
	C35.375217,504.069824 34.544910,504.125366 33.714397,504.128784 
	C31.610989,504.137390 30.158283,504.807007 30.183046,507.259583 
	C30.205656,509.498688 31.243092,510.601532 33.499290,510.710571 
	C35.073372,510.786621 36.848999,510.484070 37.851097,512.011169 
	C37.835598,514.238647 36.335506,514.354309 35.065426,514.221985 
	C30.924017,513.790527 29.758308,515.892029 30.113905,519.569153 
	C30.208855,520.551025 30.121222,521.567810 29.985079,522.550232 
	C29.817059,523.762756 29.363083,524.903931 27.853455,524.784058 
	C26.675686,524.690674 26.117577,523.695312 26.108927,522.688599 
	C26.053291,516.212097 26.056694,509.734467 26.125811,503.258118 
	C26.138933,502.028351 26.823528,500.907318 28.199183,500.856995 
	C31.181749,500.747894 34.258648,500.362457 37.131886,500.928314 
	C39.965839,501.486450 39.091270,502.945221 36.622429,503.970276 
z"/>
<path fill="#000000" opacity="1.000000" stroke="none" 
	d="
M255.112823,510.545776 
	C251.826736,515.154663 252.198563,518.248474 256.419647,523.820923 
	C255.546036,526.010437 253.768021,526.015320 251.944855,525.440552 
	C249.548538,524.685059 248.766220,522.712097 248.682510,520.399536 
	C248.610672,518.415222 248.449005,516.412781 248.630859,514.446411 
	C248.833923,512.250793 247.689056,510.700684 246.300812,508.777679 
	C248.472092,507.409912 248.120148,502.667084 251.804474,504.234924 
	C253.016647,504.750763 258.252106,506.061554 255.112823,510.545776 
z"/>
<path fill="#000000" opacity="1.000000" stroke="none" 
	d="
M174.365631,511.573792 
	C179.047791,506.132812 182.352234,505.494354 187.316452,509.561584 
	C182.827866,510.935638 176.599503,510.269806 177.549377,517.262268 
	C178.257629,522.475830 183.149368,521.289124 186.739807,522.656250 
	C184.436066,526.666992 181.149368,525.614746 178.449173,524.694885 
	C173.988007,523.175110 172.521881,518.206482 174.365631,511.573792 
z"/>
<path fill="#000000" opacity="1.000000" stroke="none" 
	d="
M127.002533,510.004028 
	C128.082764,507.326996 129.988449,505.395905 132.473709,503.711761 
	C134.393036,505.440552 135.364594,507.915131 138.523117,508.286499 
	C132.701508,512.534241 132.473450,518.890747 137.364807,523.836243 
	C133.624054,526.124512 131.039352,525.306946 130.194885,521.305725 
	C129.754532,519.219299 129.919556,517.001465 129.849213,514.841736 
	C129.788773,512.986145 129.850937,511.096649 127.332367,510.105865 
	C126.978355,509.971375 126.994888,509.993652 127.002533,510.004028 
z"/>
<path fill="#000000" opacity="1.000000" stroke="none" 
	d="
M105.792168,515.631592 
	C105.824181,511.352234 105.810471,507.528534 105.893562,503.706909 
	C105.923546,502.328156 106.241432,500.916779 108.088806,501.048462 
	C109.558907,501.153259 109.954826,502.353912 109.943779,503.562592 
	C109.892342,509.194824 110.836983,514.897339 109.366371,520.437622 
	C108.054337,525.380432 103.659645,526.710999 99.414192,523.339294 
	C102.388466,521.603943 106.869797,521.083069 105.792168,515.631592 
z"/>
<path fill="#000000" opacity="1.000000" stroke="none" 
	d="
M210.025497,513.359558 
	C209.648560,516.525146 209.456558,519.329834 209.237396,522.132385 
	C209.144318,523.322510 208.939697,524.608398 207.509003,524.784119 
	C206.051590,524.963135 205.437851,523.778687 205.295898,522.592285 
	C204.781906,518.296570 204.683731,513.969482 205.262375,509.683746 
	C205.515259,507.810730 211.765717,506.143127 213.285294,507.426056 
	C214.461792,508.419342 214.135010,509.435791 213.120346,510.357941 
	C212.149155,511.240570 211.173264,512.118042 210.025497,513.359558 
z"/>
<path fill="#000000" opacity="1.000000" stroke="none" 
	d="
M721.012451,221.921448 
	C723.433105,224.109848 725.555298,226.101440 727.985779,228.382294 
	C722.583740,228.962738 710.003906,220.478195 709.559265,216.085251 
	C714.301270,216.126755 717.094788,219.805008 721.012451,221.921448 
z"/>
<path fill="#000000" opacity="1.000000" stroke="none" 
	d="
M712.761963,228.238861 
	C710.899719,226.829102 709.289001,225.680527 707.713989,224.484894 
	C706.063660,223.232056 704.680786,221.853455 706.255371,218.944641 
	C713.008179,222.813156 718.166016,228.176529 722.742432,234.310394 
	C718.232666,234.430649 716.027039,230.787186 712.761963,228.238861 
z"/>
<path fill="#000000" opacity="1.000000" stroke="none" 
	d="
M750.076416,436.610168 
	C746.182251,435.858185 742.287598,436.613434 739.430664,433.618744 
	C738.607178,432.755493 737.780273,431.892883 738.528809,430.592255 
	C739.046204,429.693207 739.877808,428.768860 740.888794,429.196686 
	C745.907715,431.320435 750.859741,433.602142 756.211182,435.996338 
	C753.682983,438.737335 752.078613,436.993195 750.076416,436.610168 
z"/>
<path fill="#000000" opacity="1.000000" stroke="none" 
	d="
M619.439575,521.461365 
	C617.137939,517.345825 614.903503,513.590393 613.805176,509.024078 
	C617.343018,509.879944 626.528320,525.842651 627.090942,531.687561 
	C623.449951,528.963257 622.233032,524.827881 619.439575,521.461365 
z"/>
<path fill="#000000" opacity="1.000000" stroke="none" 
	d="
M244.303986,520.705322 
	C244.142685,522.592224 244.396759,524.504272 242.340164,524.585449 
	C240.325348,524.664978 240.138519,522.817932 240.106705,521.334595 
	C240.031876,517.846375 240.049957,514.352844 240.158737,510.865540 
	C240.204437,509.400482 240.296097,507.457855 242.288025,507.503235 
	C244.643387,507.556885 244.379028,509.649445 244.381454,511.290985 
	C244.385880,514.282166 244.337250,517.273499 244.303986,520.705322 
z"/>
<path fill="#000000" opacity="1.000000" stroke="none" 
	d="
M538.618652,402.218872 
	C542.235229,406.243866 547.025085,408.552460 549.627319,413.166748 
	C542.856262,410.455078 537.094543,406.441071 531.909912,400.975494 
	C535.143372,398.838226 536.613525,400.923157 538.618652,402.218872 
z"/>
<path fill="#000000" opacity="1.000000" stroke="none" 
	d="
M702.600403,226.429779 
	C699.713562,222.556229 694.928040,220.818268 693.718018,215.876770 
	C700.143494,219.594986 705.753662,224.202789 710.109497,230.281448 
	C706.837341,230.474060 704.978638,228.333099 702.600403,226.429779 
z"/>
<path fill="#000000" opacity="1.000000" stroke="none" 
	d="
M767.455566,482.856995 
	C766.117554,484.010498 764.973083,484.971558 763.723938,485.768433 
	C762.421204,486.599548 761.175293,486.265137 760.129517,485.186523 
	C759.282532,484.312805 758.683594,483.322113 759.139709,482.049164 
	C759.640442,480.651855 760.744629,479.555267 762.132141,480.007599 
	C764.025635,480.624908 766.594543,480.058228 767.455566,482.856995 
z"/>
<path fill="#000000" opacity="1.000000" stroke="none" 
	d="
M429.354797,334.369446 
	C426.300140,332.312897 423.252350,330.716827 421.235077,326.677032 
	C426.149994,328.782104 429.365173,331.592499 432.457703,334.730255 
	C431.101013,336.037018 430.441406,334.868530 429.354797,334.369446 
z"/>
<path fill="#000000" opacity="1.000000" stroke="none" 
	d="
M439.687805,174.785980 
	C440.850861,179.333176 438.993195,184.136047 441.826355,188.396957 
	C442.474762,189.372070 443.402161,190.596008 442.629700,192.032150 
	C436.913239,189.739960 434.839447,178.729721 439.687805,174.785980 
z"/>
<path fill="#000000" opacity="1.000000" stroke="none" 
	d="
M481.214142,92.554459 
	C486.892914,92.046730 491.335846,94.893311 496.000244,96.937752 
	C498.425232,98.000618 500.922638,99.166496 502.948334,100.822754 
	C509.555786,106.225128 515.970337,105.841644 522.758911,101.159103 
	C524.439209,100.000114 526.586365,98.215881 529.045532,99.958572 
	C529.487427,101.632141 528.233521,102.182480 527.283264,102.663994 
	C521.826782,105.428940 517.066711,109.528038 511.022583,111.165291 
	C509.032990,111.704254 506.993988,111.608292 505.089966,111.079460 
	C502.063965,110.239021 503.604004,108.179535 503.905640,106.267471 
	C504.189423,104.468475 502.202637,103.994652 501.005829,103.241478 
	C495.766785,99.944550 489.942902,97.887100 484.272614,95.503998 
	C482.912842,94.932526 480.664948,95.350456 481.214142,92.554459 
z"/>
<path fill="#000000" opacity="1.000000" stroke="none" 
	d="
M227.041229,176.125412 
	C233.650421,171.589691 240.291061,169.924973 247.520569,173.507538 
	C256.276917,177.846710 258.423615,190.792419 252.036591,200.553772 
	C249.220245,204.858032 249.220245,204.858032 251.188629,209.929932 
	C247.765808,206.725006 245.353821,207.563950 243.544403,210.581268 
	C241.276581,214.362961 237.603867,212.493668 235.007584,212.070511 
	C228.175613,210.956955 222.758011,207.251266 220.256088,200.359497 
	C218.401291,195.250320 218.209854,189.562912 214.876251,184.946594 
	C214.633499,184.610428 215.072021,183.782288 215.157639,183.360916 
	C217.823639,182.150009 217.608795,185.205887 219.076538,185.575317 
	C219.774506,184.671371 218.414978,183.528656 220.213531,182.445129 
	C222.819870,183.540451 227.208481,182.989883 223.992447,189.109573 
	C222.071335,192.765167 227.082993,203.071198 230.858215,205.597321 
	C232.505325,206.699448 234.234955,207.678268 236.227402,208.896729 
	C237.903442,207.147781 240.984772,207.074326 242.561813,203.662750 
	C240.175247,201.703888 237.658508,199.638168 234.154816,196.762375 
	C239.711456,196.414597 241.592026,200.377945 244.758423,201.462234 
	C251.489807,195.379196 252.747589,185.307510 247.588150,179.595825 
	C241.226791,172.553574 236.134949,172.599396 227.414474,179.822662 
	C225.399796,179.024429 225.707077,177.768433 227.041229,176.125412 
z"/>
<path fill="#000000" opacity="1.000000" stroke="none" 
	d="
M271.791718,74.128845 
	C273.936493,76.509079 271.430511,76.755539 270.450897,77.213707 
	C262.640320,80.866737 254.858887,84.541176 247.888351,89.714470 
	C245.796021,91.267319 243.358994,91.361107 239.937332,91.124420 
	C248.974686,81.451118 259.669281,76.717720 271.791718,74.128845 
z"/>
<path fill="#000000" opacity="1.000000" stroke="none" 
	d="
M213.501785,159.595673 
	C215.141663,161.839340 216.173523,164.009979 215.925140,166.391953 
	C215.589066,169.614914 214.374374,172.151016 210.012848,170.819946 
	C210.596375,169.046539 211.341721,167.556625 211.549667,165.995132 
	C212.051971,162.223358 210.345169,160.880081 206.724075,162.048706 
	C201.708313,163.667435 200.266891,159.910660 198.438614,156.310440 
	C203.044830,159.593216 208.911652,155.236282 213.501785,159.595673 
z"/>
<path fill="#000000" opacity="1.000000" stroke="none" 
	d="
M179.138016,136.879761 
	C181.786194,141.103073 187.403412,142.307587 189.349167,147.279266 
	C184.842834,145.325989 180.301376,143.436371 178.704605,137.610519 
	C178.677353,137.255768 178.985291,137.006119 179.138016,136.879761 
z"/>
<path fill="#000000" opacity="1.000000" stroke="none" 
	d="
M393.461487,249.808548 
	C394.579041,251.927521 394.097809,253.347153 392.281921,254.191696 
	C391.096954,254.742844 389.935486,254.396896 389.170898,253.366577 
	C388.210449,252.072372 386.398407,250.683853 387.275940,249.057510 
	C389.340515,245.231171 391.281921,248.472244 393.461487,249.808548 
z"/>
<path fill="#000000" opacity="1.000000" stroke="none" 
	d="
M655.667419,460.091400 
	C652.129333,460.443176 649.470032,459.243103 647.022522,457.455658 
	C645.487793,456.334747 645.027222,454.878479 646.002136,453.152100 
	C646.880554,451.596619 648.155518,451.214539 649.744507,452.066193 
	C651.405212,452.956299 653.195251,452.971680 655.019287,453.025391 
	C657.040405,453.084839 659.780273,452.243652 660.407593,455.098114 
	C661.104736,458.270142 658.508789,459.243835 655.667419,460.091400 
z"/>
</svg>